<svg width="975" height="220" viewBox="0 0 975 220" fill="none" xmlns="http://www.w3.org/2000/svg">
<path d="M72.1953 45.3047L69.8395 27.4595L57.2427 29.1225L54.5915 41.5489L72.1953 45.3047ZM107.703 40.6172L125.312 44.35L130.593 19.4393L105.347 22.772L107.703 40.6172ZM90.7109 120.773L73.1022 117.041L68.1399 140.449L92.0065 138.727L90.7109 120.773ZM112.391 110.227L100.08 97.0949L100.06 97.1134L100.04 97.1321L112.391 110.227ZM127.273 87.9609L110.667 81.0164L110.639 81.0837L110.611 81.1512L127.273 87.9609ZM125.75 38.625L140.038 27.6771L139.856 27.4391L139.665 27.2073L125.75 38.625ZM116.258 31.5938L108.885 48.0146L109.026 48.0777L109.167 48.1384L116.258 31.5938ZM76.7656 33L70.919 15.976L70.8923 15.9851L70.8657 15.9944L76.7656 33ZM44.8906 62.8828L28.1044 56.3849L28.0739 56.4637L28.0442 56.5427L44.8906 62.8828ZM42.4297 99.3281L59.6337 94.0346L59.4894 93.5657L59.3199 93.1054L42.4297 99.3281ZM43.6016 102.023L59.2299 93.0929L59.1349 92.9267L59.0364 92.7625L43.6016 102.023ZM44.0703 103.664V121.664H62.0703V103.664H44.0703ZM25.0859 98.5078L36.8441 84.879L36.7627 84.8087L36.6804 84.7394L25.0859 98.5078ZM21.8047 64.875L38.2429 72.2089L38.2636 72.1625L38.284 72.1159L21.8047 64.875ZM31.4141 49.9922L45.0018 61.7979L45.0247 61.7715L45.0474 61.7451L31.4141 49.9922ZM45.3594 37.3359L55.9213 51.9114L55.9401 51.8978L55.9588 51.8842L45.3594 37.3359ZM63.0547 27.0234L55.628 10.6269L55.6019 10.6388L55.5758 10.6507L63.0547 27.0234ZM145.789 32.4141L158.175 19.3528L158.142 19.3222L158.11 19.2918L145.789 32.4141ZM155.867 47.2969L139.091 53.8209L139.13 53.9216L139.171 54.0219L155.867 47.2969ZM154.461 88.3125L137.856 81.3654L137.825 81.4377L137.796 81.5104L154.461 88.3125ZM140.867 108.82L128.056 96.1758L128.02 96.2131L127.983 96.2505L140.867 108.82ZM118.484 124.055L125.557 140.607L125.593 140.592L125.629 140.576L118.484 124.055ZM88.7188 129.562V111.562H74.1638L71.1174 125.795L88.7188 129.562ZM74.0703 198V216H88.6253L91.6716 201.767L74.0703 198ZM39.6172 198L22.0134 194.244L17.3717 216H39.6172V198ZM74.5511 63.1499L110.059 58.4624L105.347 22.772L69.8395 27.4595L74.5511 63.1499ZM90.0944 36.8844L73.1022 117.041L108.32 124.506L125.312 44.35L90.0944 36.8844ZM92.0065 138.727C104.648 137.814 115.606 131.937 124.741 123.321L100.04 97.1321C95.4252 101.485 91.9298 102.639 89.4153 102.82L92.0065 138.727ZM124.702 123.358C133.076 115.508 139.415 105.832 143.936 94.7707L110.611 81.1512C107.788 88.0587 104.206 93.2268 100.08 97.0949L124.702 123.358ZM143.88 94.9054C148.351 84.2148 150.664 73.1104 150.664 61.7109H114.664C114.664 68.124 113.384 74.5196 110.667 81.0164L143.88 94.9054ZM150.664 61.7109C150.664 49.3359 147.579 37.5187 140.038 27.6771L111.462 49.5729C113.14 51.7626 114.664 55.336 114.664 61.7109H150.664ZM139.665 27.2073C135.23 21.8021 129.675 17.7604 123.348 15.0491L109.167 48.1384C110.497 48.7084 111.27 49.3541 111.835 50.0427L139.665 27.2073ZM123.63 15.1729C117.05 12.2182 109.994 11.0156 102.898 11.0156V47.0156C105.959 47.0156 107.81 47.5318 108.885 48.0146L123.63 15.1729ZM102.898 11.0156C91.5792 11.0156 80.8458 12.5668 70.919 15.976L82.6123 50.024C88.1542 48.1207 94.8426 47.0156 102.898 47.0156V11.0156ZM70.8657 15.9944C61.0972 19.3835 52.3514 24.4264 44.9545 31.2873L69.4361 57.6815C72.8205 54.5423 77.1216 51.929 82.6655 50.0056L70.8657 15.9944ZM44.9545 31.2873C37.4408 38.2566 31.8434 46.7258 28.1044 56.3849L61.6768 69.3807C63.5628 64.5086 66.1686 60.7122 69.4361 57.6815L44.9545 31.2873ZM28.0442 56.5427C24.431 66.1435 22.7891 76.5029 22.7891 87.375H58.7891C58.7891 80.1221 59.8815 74.1534 61.7371 69.2229L28.0442 56.5427ZM22.7891 87.375C22.7891 93.4115 23.4118 99.7757 25.5395 105.551L59.3199 93.1054C59.3245 93.1181 59.1737 92.6981 59.032 91.6656C58.8928 90.6515 58.7891 89.2441 58.7891 87.375H22.7891ZM25.2257 104.622C25.8967 106.802 26.8386 109.071 28.1667 111.284L59.0364 92.7625C59.427 93.4135 59.5877 93.8851 59.6337 94.0346L25.2257 104.622ZM27.9732 110.954C26.9704 109.199 26.0703 106.698 26.0703 103.664H62.0703C62.0703 99.5361 60.8578 95.9416 59.2299 93.0929L27.9732 110.954ZM44.0703 85.6641C40.8485 85.6641 38.7618 85.3366 37.5383 85.0043C36.348 84.681 36.3606 84.4618 36.8441 84.879L13.3277 112.137C22.1224 119.724 33.6845 121.664 44.0703 121.664V85.6641ZM36.6804 84.7394C37.0986 85.0916 37.1231 85.3577 36.9701 84.9417C36.769 84.3949 36.4062 82.9987 36.4062 80.3438H0.40625C0.40625 91.6205 3.44724 103.818 13.4915 112.276L36.6804 84.7394ZM36.4062 80.3438C36.4062 77.7921 36.9416 75.1256 38.2429 72.2089L5.36652 57.5411C2.13654 64.7807 0.40625 72.4267 0.40625 80.3438H36.4062ZM38.284 72.1159C39.7388 68.805 41.9075 65.3592 45.0018 61.7979L17.8264 38.1865C12.6394 44.1564 8.40179 50.6325 5.32534 57.6341L38.284 72.1159ZM45.0474 61.7451C47.9471 58.3815 51.5354 55.0897 55.9213 51.9114L34.7974 22.7604C28.4021 27.3947 22.6935 32.5404 17.7807 38.2393L45.0474 61.7451ZM55.9588 51.8842C60.4241 48.6309 65.2732 45.799 70.5336 43.3962L55.5758 10.6507C48.1799 14.0291 41.2322 18.0722 34.7599 22.7877L55.9588 51.8842ZM70.4813 43.4199C81.6896 38.3432 92.3716 36 102.664 36V0C86.7065 0 70.9823 3.67238 55.628 10.6269L70.4813 43.4199ZM102.664 36C118.102 36 127.524 39.955 133.468 45.5364L158.11 19.2918C143.586 5.65437 124.258 0 102.664 0V36ZM133.403 45.4753C136.075 48.0091 137.9 50.7591 139.091 53.8209L172.643 40.7728C169.459 32.5846 164.565 25.4128 158.175 19.3528L133.403 45.4753ZM139.171 54.0219C140.538 57.4167 141.266 61.1009 141.266 65.2266H177.266C177.266 56.696 175.728 48.4271 172.564 40.5719L139.171 54.0219ZM141.266 65.2266C141.266 70.4056 140.206 75.747 137.856 81.3654L171.066 95.2596C175.122 85.5655 177.266 75.5163 177.266 65.2266H141.266ZM137.796 81.5104C135.581 86.9369 132.377 91.7988 128.056 96.1758L153.678 121.465C161.233 113.811 167.091 105.001 171.126 95.1146L137.796 81.5104ZM127.983 96.2505C123.461 100.886 117.981 104.661 111.34 107.533L125.629 140.576C136.331 135.948 145.774 129.567 153.751 121.39L127.983 96.2505ZM111.412 107.502C105.291 110.117 98.24 111.562 90.0078 111.562V147.562C102.557 147.562 114.49 145.336 125.557 140.607L111.412 107.502ZM90.0078 111.562H88.7188V147.562H90.0078V111.562ZM71.1174 125.795L56.469 194.233L91.6716 201.767L106.32 133.33L71.1174 125.795ZM74.0703 180H39.6172V216H74.0703V180ZM57.221 201.756L89.7991 49.0605L54.5915 41.5489L22.0134 194.244L57.221 201.756ZM162.078 190.266L174.057 176.83L174.02 176.797L173.983 176.764L162.078 190.266ZM152.703 144.797L170.445 147.832L170.449 147.813L170.452 147.793L152.703 144.797ZM157.391 126.633L174.4 132.521L174.434 132.423L174.467 132.325L157.391 126.633ZM178.133 91.8281L190.633 104.779L190.677 104.737L190.721 104.694L178.133 91.8281ZM247.742 114.445H229.742V127.419L242.05 131.522L247.742 114.445ZM269.188 110.227L275.996 126.889L276.039 126.872L276.082 126.854L269.188 110.227ZM287.352 100.266L304.488 94.7575L297.028 71.5478L277.043 85.51L287.352 100.266ZM289.461 106.828L302.495 119.242L309.869 111.499L306.597 101.32L289.461 106.828ZM271.297 119.367L263.732 103.034L263.699 103.049L263.666 103.065L271.297 119.367ZM246.922 126.75L243.963 108.995L230.19 111.29L228.989 125.202L246.922 126.75ZM240.594 156.516L257.484 162.738L257.493 162.714L257.501 162.691L240.594 156.516ZM227.938 179.484L241.908 190.835L241.934 190.803L241.96 190.771L227.938 179.484ZM207.781 173.625L219.556 187.24L219.57 187.228L219.584 187.216L207.781 173.625ZM227 127.453L244.839 129.858L246.957 114.146L231.638 110.061L227 127.453ZM221.961 123.938L206.159 132.557L206.307 132.828L206.464 133.095L221.961 123.938ZM228.055 104.367L235.212 120.883L246.796 115.863L246.021 103.262L228.055 104.367ZM225.594 93.4688L240.98 84.1271L240.86 83.9296L240.735 83.7351L225.594 93.4688ZM222.898 91.125L215.355 107.468L215.58 107.572L215.808 107.67L222.898 91.125ZM203.094 102.609L218.193 112.408L218.243 112.331L218.292 112.254L203.094 102.609ZM191.375 129.797L174.053 124.902L174.051 124.911L174.048 124.92L191.375 129.797ZM187.508 167.648L169.724 170.427L169.766 170.697L169.816 170.966L187.508 167.648ZM189.734 173.508L204.711 163.523L204.524 163.242L204.327 162.969L189.734 173.508ZM193.367 176.555L186.382 193.144L186.76 193.303L187.144 193.445L193.367 176.555ZM189.617 180.938C180.528 180.938 176.201 178.742 174.057 176.83L150.099 203.701C160.924 213.352 174.956 216.938 189.617 216.938V180.938ZM173.983 176.764C171.81 174.849 169.18 170.849 169.18 161.086H133.18C133.18 177.417 137.815 192.87 150.174 203.767L173.983 176.764ZM169.18 161.086C169.18 157.377 169.565 152.98 170.445 147.832L134.961 141.762C133.81 148.489 133.18 154.951 133.18 161.086H169.18ZM170.452 147.793C171.293 142.814 172.599 137.726 174.4 132.521L140.381 120.745C137.964 127.727 136.145 134.748 134.954 141.8L170.452 147.793ZM174.467 132.325C178.598 119.931 184.159 111.029 190.633 104.779L165.632 78.877C154.138 89.9711 145.871 104.272 140.314 120.941L174.467 132.325ZM190.721 104.694C198.265 97.3129 206.695 93.8906 216.922 93.8906V57.8906C197.149 57.8906 179.719 65.0934 165.544 78.9621L190.721 104.694ZM216.922 93.8906C223.256 93.8906 225.138 95.6662 226.011 96.7518C227.486 98.5866 229.742 103.378 229.742 114.211H265.742C265.742 99.4975 262.861 85.1283 254.063 74.1896C244.663 62.5018 231.135 57.8906 216.922 57.8906V93.8906ZM229.742 114.211V114.445H265.742V114.211H229.742ZM242.05 131.522C243.417 131.977 245.879 132.68 248.914 132.68V96.6797C250.214 96.6797 251.25 96.8372 251.917 96.9706C252.602 97.1078 253.121 97.2646 253.434 97.369L242.05 131.522ZM248.914 132.68H250.32V96.6797H248.914V132.68ZM250.32 132.68C258.804 132.68 267.508 130.357 275.996 126.889L262.379 93.5639C256.336 96.0331 252.462 96.6797 250.32 96.6797V132.68ZM276.082 126.854C283.694 123.697 290.893 119.749 297.66 115.021L277.043 85.51C272.403 88.7512 267.493 91.4431 262.293 93.5992L276.082 126.854ZM270.215 105.774L272.324 112.336L306.597 101.32L304.488 94.7575L270.215 105.774ZM276.426 94.4143C273.582 97.4012 269.508 100.359 263.732 103.034L278.862 135.7C287.93 131.5 295.965 126.099 302.495 119.242L276.426 94.4143ZM263.666 103.065C257.963 105.734 251.434 107.75 243.963 108.995L249.881 144.505C260.223 142.781 269.943 139.875 278.928 135.67L263.666 103.065ZM228.989 125.202C228.169 134.696 226.353 143.037 223.686 150.341L257.501 162.691C261.397 152.025 263.8 140.523 264.855 128.298L228.989 125.202ZM223.704 150.293C220.995 157.644 217.675 163.527 213.915 168.198L241.96 190.771C248.513 182.629 253.63 173.2 257.484 162.738L223.704 150.293ZM213.967 168.134C210.32 172.623 206.412 175.758 202.274 177.876L218.679 209.921C227.666 205.32 235.399 198.845 241.908 190.835L213.967 168.134ZM202.274 177.876C198.24 179.941 194.097 180.938 189.617 180.938V216.938C199.825 216.938 209.588 214.575 218.679 209.921L202.274 177.876ZM199.227 195.375C207.702 195.375 214.574 191.549 219.556 187.24L196.007 160.01C195.627 160.339 195.697 160.193 196.248 159.952C196.855 159.686 197.891 159.375 199.227 159.375V195.375ZM219.584 187.216C224.498 182.948 228.47 177.621 231.747 171.862L200.457 154.059C198.577 157.364 197.002 159.146 195.979 160.034L219.584 187.216ZM231.747 171.862C235.099 165.969 237.806 159.4 239.985 152.317L205.577 141.73C204.007 146.835 202.26 150.89 200.457 154.059L231.747 171.862ZM239.985 152.317C242.178 145.191 243.782 137.694 244.839 129.858L209.161 125.048C208.343 131.119 207.135 136.668 205.577 141.73L239.985 152.317ZM231.638 110.061C232.127 110.191 233.118 110.531 234.282 111.343C235.499 112.193 236.62 113.362 237.458 114.78L206.464 133.095C210.378 139.718 216.501 143.283 222.362 144.845L231.638 110.061ZM237.763 115.318C238.691 117.019 238.555 118.047 238.555 117.375H202.555C202.555 122.015 203.356 127.419 206.159 132.557L237.763 115.318ZM238.555 117.375C238.555 116.473 238.734 117.194 237.933 118.513L207.161 99.8303C203.703 105.525 202.555 111.714 202.555 117.375H238.555ZM237.933 118.513C237.685 118.921 237.298 119.418 236.753 119.894C236.207 120.37 235.658 120.69 235.212 120.883L220.898 87.8512C215.127 90.3516 210.419 94.4634 207.161 99.8303L237.933 118.513ZM246.021 103.262C245.673 97.6091 244.695 90.246 240.98 84.1271L210.208 102.81C209.831 102.19 209.658 101.749 209.608 101.614C209.556 101.471 209.583 101.513 209.647 101.799C209.784 102.405 209.972 103.574 210.089 105.473L246.021 103.262ZM240.735 83.7351C238.277 79.9111 234.692 76.596 229.989 74.5804L215.808 107.67C213.292 106.591 211.505 104.839 210.453 103.202L240.735 83.7351ZM230.441 74.7817C226.222 72.8344 222.043 72.4219 218.914 72.4219V108.422C218.902 108.422 218.574 108.423 218.012 108.324C217.453 108.225 216.507 108 215.355 107.468L230.441 74.7817ZM218.914 72.4219C203.755 72.4219 193.792 83.6743 187.896 92.9645L218.292 112.254C219.21 110.807 220.007 109.742 220.659 108.981C221.314 108.215 221.741 107.852 221.901 107.728C222.053 107.611 221.857 107.792 221.301 108.004C220.708 108.23 219.882 108.422 218.914 108.422V72.4219ZM187.994 92.8109C182.016 102.023 177.461 112.844 174.053 124.902L208.697 134.692C211.383 125.187 214.64 117.883 218.193 112.408L187.994 92.8109ZM174.048 124.92C170.772 136.558 168.922 147.624 168.922 157.922H204.922C204.922 151.814 206.04 144.13 208.702 134.674L174.048 124.92ZM168.922 157.922C168.922 162.373 169.132 166.642 169.724 170.427L205.292 164.87C205.102 163.655 204.922 161.44 204.922 157.922H168.922ZM169.816 170.966C170.564 174.954 172.023 179.728 175.142 184.047L204.327 162.969C204.907 163.773 205.163 164.387 205.242 164.594C205.321 164.803 205.278 164.749 205.2 164.331L169.816 170.966ZM174.757 183.492C177.552 187.684 181.478 191.079 186.382 193.144L200.352 159.965C201.237 160.338 202.113 160.862 202.913 161.533C203.707 162.199 204.296 162.9 204.711 163.523L174.757 183.492ZM187.144 193.445C191.387 195.008 195.688 195.375 199.227 195.375V159.375C198.957 159.375 198.758 159.367 198.621 159.359C198.483 159.35 198.427 159.342 198.441 159.344C198.454 159.346 198.561 159.361 198.746 159.405C198.931 159.449 199.22 159.528 199.59 159.665L187.144 193.445ZM266.727 190.852L253.85 203.429L253.88 203.46L253.911 203.491L266.727 190.852ZM258.641 143.039L276.332 146.356L276.352 146.249L276.371 146.142L258.641 143.039ZM263.562 124.523L246.646 118.372L246.634 118.407L246.621 118.442L263.562 124.523ZM284.07 91.2422L271.598 78.2633L271.558 78.3021L271.518 78.3411L284.07 91.2422ZM333.172 80.2266L322.777 94.922L322.98 95.0656L323.187 95.2035L333.172 80.2266ZM338.094 89.9531H320.094L355.701 93.6915L338.094 89.9531ZM349.812 34.7578L347.399 16.9204L334.838 18.6201L332.205 31.0195L349.812 34.7578ZM385.32 29.9531L402.927 33.6942L408.241 8.68766L382.907 12.1157L385.32 29.9531ZM357.781 159.562L375.022 164.735L375.235 164.027L375.388 163.304L357.781 159.562ZM378.523 170.227L392.021 182.136L392.15 181.989L392.276 181.84L378.523 170.227ZM386.023 154.992V136.992H372.706L368.811 149.727L386.023 154.992ZM396.102 154.992L413.088 160.948L421.488 136.992H396.102V154.992ZM380.516 183.469L393.859 195.55L393.918 195.484L393.977 195.418L380.516 183.469ZM363.055 195.539L357.053 178.569L357.036 178.575L357.019 178.581L363.055 195.539ZM324.383 177.375L342.21 174.887L335.64 127.801L309.378 167.432L324.383 177.375ZM310.438 192.375L300.084 177.65L299.988 177.718L299.892 177.787L310.438 192.375ZM309.969 174.914L302.955 158.337L302.837 158.387L302.719 158.438L309.969 174.914ZM315.711 171.281L327.522 184.864L327.666 184.739L327.807 184.611L315.711 171.281ZM324.148 156.281L341.699 160.28L342.148 158.306V156.281H324.148ZM324.148 154.992L306.544 151.239L306.148 153.095V154.992H324.148ZM335.867 100.031L353.471 103.785L354.341 99.7088L353.33 95.6656L335.867 100.031ZM333.523 94.7578L347.822 83.8237L347.677 83.6338L347.526 83.4477L333.523 94.7578ZM316.648 94.875L306.403 80.0755L306.312 80.1381L306.223 80.2018L316.648 94.875ZM308.211 103.664L293.522 93.2598L293.457 93.3519L293.393 93.4449L308.211 103.664ZM296.609 130.266L313.896 135.284L313.923 135.19L313.949 135.096L296.609 130.266ZM293.445 144.68L311.246 147.35L311.249 147.328L311.253 147.307L293.445 144.68ZM296.844 173.625L310.034 161.377L309.642 160.954L309.223 160.558L296.844 173.625ZM288.875 181.406C283.811 181.406 281.298 179.992 279.542 178.212L253.911 203.491C263.405 213.118 275.658 217.406 288.875 217.406V181.406ZM279.603 178.274C277.479 176.1 274.883 171.393 274.883 160.852H238.883C238.883 176.872 242.849 192.166 253.85 203.429L279.603 178.274ZM274.883 160.852C274.883 156.472 275.339 151.651 276.332 146.356L240.949 139.722C239.598 146.927 238.883 153.981 238.883 160.852H274.883ZM276.371 146.142C277.284 140.926 278.657 135.75 280.504 130.605L246.621 118.442C244.093 125.484 242.185 132.652 240.91 139.936L276.371 146.142ZM280.479 130.675C284.743 118.949 290.26 110.334 296.623 104.143L271.518 78.3411C260.537 89.0256 252.382 102.598 246.646 118.372L280.479 130.675ZM296.542 104.221C303.422 97.6098 310.557 94.8281 318.641 94.8281V58.8281C300.631 58.8281 284.718 65.6559 271.598 78.2633L296.542 104.221ZM318.641 94.8281C320.894 94.8281 322.294 95.0308 323.038 95.2048C323.78 95.3784 323.505 95.4369 322.777 94.922L343.566 65.5311C335.917 60.1206 326.643 58.8281 318.641 58.8281V94.8281ZM323.187 95.2035C322.871 94.9929 321.952 94.2776 321.158 92.8593C320.336 91.3905 320.094 89.9637 320.094 89.0156H356.094C356.094 78.815 351.005 70.4821 343.156 65.2497L323.187 95.2035ZM320.094 89.0156V89.9531H356.094V89.0156H320.094ZM355.701 93.6915L367.42 38.4961L332.205 31.0195L320.486 86.2148L355.701 93.6915ZM352.226 52.5953L387.734 47.7906L382.907 12.1157L347.399 16.9204L352.226 52.5953ZM367.713 26.2121L340.174 155.821L375.388 163.304L402.927 33.6942L367.713 26.2121ZM340.54 154.39C339.265 158.641 338.727 162.989 338.727 167.297H374.727C374.727 165.98 374.891 165.172 375.022 164.735L340.54 154.39ZM338.727 167.297C338.727 172.73 339.935 181.569 347.413 187.926L370.728 160.496C372.857 162.305 373.901 164.356 374.36 165.708C374.777 166.938 374.727 167.611 374.727 167.297H338.727ZM347.413 187.926C353.804 193.359 361.525 194.203 366.57 194.203V158.203C365.934 158.203 366.08 158.133 366.738 158.308C367.421 158.49 369.005 159.032 370.728 160.496L347.413 187.926ZM366.57 194.203C377.188 194.203 385.811 189.174 392.021 182.136L365.026 158.317C364.51 158.903 364.415 158.826 364.849 158.609C365.063 158.502 365.349 158.391 365.686 158.311C366.023 158.232 366.329 158.203 366.57 158.203V194.203ZM392.276 181.84C397.406 175.765 400.821 168.154 403.236 160.257L368.811 149.727C367.164 155.112 365.578 157.657 364.771 158.613L392.276 181.84ZM386.023 172.992H396.102V136.992H386.023V172.992ZM379.116 149.036C375.402 159.626 371.212 166.836 367.054 171.52L393.977 195.418C402.163 186.196 408.364 174.421 413.088 160.948L379.116 149.036ZM367.172 171.388C363.643 175.285 360.253 177.437 357.053 178.569L369.056 212.509C378.669 209.109 386.919 203.215 393.859 195.55L367.172 171.388ZM357.019 178.581C354.561 179.456 351.59 180 347.938 180V216C355.223 216 362.329 214.903 369.091 212.497L357.019 178.581ZM347.938 180C344.563 180 343.732 179.176 343.662 179.116L320.104 206.338C328.159 213.308 338.031 216 347.938 216V180ZM343.662 179.116C343.574 179.039 343.384 178.862 343.134 178.351C342.859 177.788 342.465 176.715 342.21 174.887L306.556 179.863C307.932 189.728 311.949 199.28 320.104 206.338L343.662 179.116ZM309.378 167.432C305.997 172.535 302.825 175.724 300.084 177.65L320.791 207.1C328.05 201.995 334.175 195.184 339.387 187.318L309.378 167.432ZM299.892 177.787C296.43 180.29 292.923 181.406 288.875 181.406V217.406C300.609 217.406 311.476 213.835 320.983 206.963L299.892 177.787ZM304.461 194.203C309.201 194.203 313.516 193.019 317.218 191.39L302.719 158.438C302.515 158.528 303.158 158.203 304.461 158.203V194.203ZM316.982 191.491C320.894 189.836 324.408 187.572 327.522 184.864L303.9 157.698C303.42 158.115 303.106 158.273 302.955 158.337L316.982 191.491ZM327.807 184.611C335.057 178.032 339.568 169.63 341.699 160.28L306.598 152.282C305.916 155.276 304.802 156.874 303.615 157.951L327.807 184.611ZM342.148 156.281V154.992H306.148V156.281H342.148ZM341.753 158.746L353.471 103.785L318.263 96.2777L306.544 151.239L341.753 158.746ZM353.33 95.6656C352.383 91.8794 350.752 87.6556 347.822 83.8237L319.225 105.692C318.76 105.084 318.52 104.603 318.422 104.383C318.326 104.166 318.342 104.145 318.405 104.397L353.33 95.6656ZM347.526 83.4477C341.532 76.0262 333.132 73.7109 326.023 73.7109V109.711C325.93 109.711 325.001 109.701 323.643 109.149C322.167 108.549 320.682 107.506 319.521 106.068L347.526 83.4477ZM326.023 73.7109C318.609 73.7109 311.973 76.2191 306.403 80.0755L326.894 109.674C327.202 109.461 327.248 109.484 327.033 109.557C326.928 109.592 326.78 109.633 326.595 109.664C326.409 109.695 326.216 109.711 326.023 109.711V73.7109ZM306.223 80.2018C301.235 83.7455 297.056 88.2706 293.522 93.2598L322.899 114.068C324.678 111.558 326.124 110.223 327.074 109.548L306.223 80.2018ZM293.393 93.4449C287.235 102.374 282.666 113.243 279.27 125.435L313.949 135.096C316.647 125.413 319.812 118.548 323.029 113.883L293.393 93.4449ZM279.323 125.247C277.7 130.839 276.466 136.442 275.638 142.052L311.253 147.307C311.831 143.386 312.706 139.38 313.896 135.284L279.323 125.247ZM275.644 142.01C274.839 147.382 274.391 152.55 274.391 157.453H310.391C310.391 154.7 310.646 151.352 311.246 147.35L275.644 142.01ZM274.391 157.453C274.391 166.21 275.724 178.412 284.464 186.692L309.223 160.558C310.843 162.092 311.037 163.343 310.858 162.694C310.683 162.06 310.391 160.447 310.391 157.453H274.391ZM283.653 185.873C286.658 189.109 290.732 191.911 295.877 193.197L304.608 158.272C307.252 158.933 309.061 160.328 310.034 161.377L283.653 185.873ZM295.877 193.197C298.819 193.932 301.727 194.203 304.461 194.203V158.203C304.276 158.203 304.201 158.194 304.222 158.196C304.243 158.198 304.379 158.215 304.608 158.272L295.877 193.197ZM419.891 198.586L425.644 181.53L425.552 181.499L425.459 181.469L419.891 198.586ZM403.719 188.508L416.885 176.234L416.878 176.226L403.719 188.508ZM393.875 170.227L376.534 175.053L376.564 175.16L376.595 175.267L393.875 170.227ZM394.93 104.953L377.333 101.163L377.331 101.172L377.329 101.182L394.93 104.953ZM408.992 64.0547L392.947 55.8975L392.941 55.9095L392.934 55.9215L408.992 64.0547ZM434.891 31.3594L445.865 45.6266L445.875 45.6194L434.891 31.3594ZM502.977 25.5L492.545 40.1692L492.565 40.1832L492.585 40.1972L502.977 25.5ZM510.828 65.9297L525.549 76.2886L525.629 76.1749L525.707 76.0599L510.828 65.9297ZM490.555 70.9688L484.171 87.7987L484.264 87.8341L484.358 87.8685L490.555 70.9688ZM484.109 66.0469L476.06 49.9472L455.666 60.1441L470.318 77.6139L484.109 66.0469ZM488.211 62.7656L501.625 74.7679L501.778 74.5975L501.926 74.4233L488.211 62.7656ZM491.844 33.7031L478.253 45.5055L478.275 45.5309L478.297 45.5562L491.844 33.7031ZM467.703 34.0547L478.546 48.4221L478.567 48.4064L478.588 48.3907L467.703 34.0547ZM455.75 47.4141L440.742 37.4763L440.741 37.4783L455.75 47.4141ZM445.555 66.8672L462.144 73.8522L445.555 66.8672ZM437.586 90.5391L420.172 85.9822L420.167 86.002L420.162 86.0217L437.586 90.5391ZM431.844 156.984L414.17 160.395L414.199 160.544L414.23 160.693L431.844 156.984ZM436.297 168.352L451.455 158.644L451.422 158.593L451.389 158.542L436.297 168.352ZM485.516 172.57L493.751 188.576L493.813 188.544L493.874 188.512L485.516 172.57ZM506.141 154.758L513.484 138.324L500.319 132.442L491.705 144.005L506.141 154.758ZM511.648 157.219L528.373 163.874L534.758 147.829L518.991 140.785L511.648 157.219ZM498.992 177.375L485.827 165.1L485.821 165.106L498.992 177.375ZM480.945 191.555L489.704 207.28L489.711 207.276L489.718 207.272L480.945 191.555ZM461.844 199.289L466.404 216.702L461.844 199.289ZM443.211 183.867C435.509 183.867 429.784 182.927 425.644 181.53L414.137 215.642C422.966 218.62 432.788 219.867 443.211 219.867V183.867ZM425.459 181.469C421.632 180.224 418.932 178.43 416.885 176.234L390.552 200.782C397.099 207.805 405.181 212.729 414.322 215.703L425.459 181.469ZM416.878 176.226C414.799 173.999 412.724 170.565 411.155 165.187L376.595 175.267C379.401 184.888 383.889 193.642 390.56 200.79L416.878 176.226ZM411.216 165.4C409.669 159.843 408.711 152.42 408.711 142.805H372.711C372.711 154.595 373.862 165.454 376.534 175.053L411.216 165.4ZM408.711 142.805C408.711 132.091 409.955 120.742 412.53 108.725L377.329 101.182C374.279 115.414 372.711 129.299 372.711 142.805H408.711ZM412.526 108.743C415.532 94.7882 419.751 82.6495 425.05 72.1878L392.934 55.9215C386.046 69.5223 380.89 84.6493 377.333 101.163L412.526 108.743ZM425.038 72.2119C431.2 60.091 438.255 51.4805 445.865 45.6266L423.916 17.0921C411.213 26.8633 401.003 40.0496 392.947 55.8975L425.038 72.2119ZM445.875 45.6194C454.232 39.1825 463.557 36 474.5 36V0C455.756 0 438.675 5.72379 423.907 17.0993L445.875 45.6194ZM474.5 36C484.117 36 489.533 38.0274 492.545 40.1692L513.408 10.8308C502.357 2.97263 488.789 0 474.5 0V36ZM492.585 40.1972C494.758 41.7337 496.578 43.976 496.578 50.1094H532.578C532.578 34.3678 526.664 20.2038 513.368 10.8028L492.585 40.1972ZM496.578 50.1094C496.578 52.503 496.356 54.0988 496.126 55.0691C495.899 56.0247 495.725 56.1296 495.949 55.7994L525.707 76.0599C531.074 68.1765 532.578 58.7599 532.578 50.1094H496.578ZM496.108 55.5708C496.163 55.4926 496.315 55.2973 496.588 55.0624C496.865 54.8237 497.182 54.6169 497.503 54.4619C498.175 54.138 498.397 54.2578 497.703 54.2578V90.2578C508.521 90.2578 518.762 85.9324 525.549 76.2886L496.108 55.5708ZM497.703 54.2578C497.46 54.2578 497.172 54.2233 496.751 54.069L484.358 87.8685C488.625 89.433 493.102 90.2578 497.703 90.2578V54.2578ZM496.938 54.1388C498.298 54.6543 498.539 55.2406 497.901 54.4799L470.318 77.6139C473.742 81.6969 478.281 85.5644 484.171 87.7987L496.938 54.1388ZM492.159 82.1466C496.058 80.1971 499.171 77.511 501.625 74.7679L474.797 50.7633C474.595 50.989 474.973 50.4904 476.06 49.9472L492.159 82.1466ZM501.926 74.4233C504.285 71.6477 506.232 68.6134 507.826 65.4248L475.627 49.3252C475.19 50.1991 474.793 50.7586 474.496 51.108L501.926 74.4233ZM507.826 65.4248C511.169 58.7402 513.125 51.5087 513.125 43.8984H477.125C477.125 45.1944 476.816 46.9473 475.627 49.3252L507.826 65.4248ZM513.125 43.8984C513.125 36.5516 511.208 28.4987 505.39 21.85L478.297 45.5562C477.658 44.8252 477.318 44.1009 477.17 43.6415C477.041 43.2389 477.125 43.2535 477.125 43.8984H513.125ZM505.434 21.9008C498.552 13.9756 489.169 11.25 480.477 11.25V47.25C481.227 47.25 481.118 47.3642 480.503 47.1231C480.188 46.9997 479.791 46.8022 479.367 46.5053C478.94 46.2068 478.563 45.8628 478.253 45.5055L505.434 21.9008ZM480.477 11.25C471.407 11.25 463.424 14.7034 456.818 19.7187L478.588 48.3907C479.533 47.6732 480.14 47.3957 480.398 47.2987C480.621 47.2148 480.617 47.25 480.477 47.25V11.25ZM456.86 19.6873C450.645 24.3779 445.341 30.5302 440.742 37.4763L470.758 57.3518C473.815 52.7355 476.48 49.9815 478.546 48.4221L456.86 19.6873ZM440.741 37.4783C436.339 44.1278 432.437 51.6368 428.965 59.8822L462.144 73.8522C464.922 67.2538 467.817 61.7941 470.759 57.3498L440.741 37.4783ZM428.965 59.8822C425.485 68.1476 422.561 76.8545 420.172 85.9822L455 95.0959C456.986 87.5049 459.374 80.4305 462.144 73.8522L428.965 59.8822ZM420.162 86.0217C417.804 95.1177 415.954 104.37 414.611 113.775L450.249 118.866C451.405 110.771 452.993 102.835 455.01 95.0564L420.162 86.0217ZM414.611 113.775C413.253 123.278 412.555 132.492 412.555 141.398H448.555C448.555 134.368 449.106 126.863 450.249 118.866L414.611 113.775ZM412.555 141.398C412.555 148.151 413.039 154.535 414.17 160.395L449.518 153.574C448.93 150.527 448.555 146.521 448.555 141.398H412.555ZM414.23 160.693C415.527 166.852 417.729 172.814 421.205 178.161L451.389 158.542C450.802 157.639 450.036 156.023 449.458 153.276L414.23 160.693ZM421.139 178.059C429.947 191.812 444.539 196.781 459.383 196.781V160.781C455.746 160.781 453.758 160.194 452.819 159.77C452.071 159.432 451.757 159.116 451.455 158.644L421.139 178.059ZM459.383 196.781C471.516 196.781 483.064 194.075 493.751 188.576L477.28 156.565C471.873 159.347 465.999 160.781 459.383 160.781V196.781ZM493.874 188.512C504.431 182.977 513.345 175.217 520.576 165.511L491.705 144.005C487.53 149.611 482.694 153.726 477.158 156.628L493.874 188.512ZM498.798 171.192L504.306 173.653L518.991 140.785L513.484 138.324L498.798 171.192ZM494.924 150.563C492.669 156.231 489.628 161.023 485.827 165.1L512.157 189.65C519.137 182.164 524.535 173.519 528.373 163.874L494.924 150.563ZM485.821 165.106C481.77 169.456 477.233 173.013 472.173 175.837L489.718 207.272C498.095 202.597 505.59 196.701 512.163 189.644L485.821 165.106ZM472.187 175.829C467.283 178.561 462.322 180.557 457.283 181.876L466.404 216.702C474.491 214.584 482.264 211.424 489.704 207.28L472.187 175.829ZM457.283 181.876C451.981 183.265 447.312 183.867 443.211 183.867V219.867C450.829 219.867 458.581 218.751 466.404 216.702L457.283 181.876ZM512.938 190.266L524.916 176.83L524.879 176.797L524.842 176.764L512.938 190.266ZM503.562 144.797L521.305 147.832L521.308 147.813L521.311 147.793L503.562 144.797ZM508.25 126.633L525.26 132.521L525.294 132.423L525.326 132.325L508.25 126.633ZM528.992 91.8281L541.493 104.779L541.537 104.737L541.581 104.694L528.992 91.8281ZM598.602 114.445H580.602V127.419L592.909 131.522L598.602 114.445ZM620.047 110.227L626.855 126.889L626.898 126.872L626.941 126.854L620.047 110.227ZM638.211 100.266L655.347 94.7575L647.887 71.5478L627.902 85.51L638.211 100.266ZM640.32 106.828L653.355 119.242L660.729 111.499L657.457 101.32L640.32 106.828ZM622.156 119.367L614.591 103.034L614.558 103.049L614.525 103.065L622.156 119.367ZM597.781 126.75L594.822 108.995L581.049 111.29L579.848 125.202L597.781 126.75ZM591.453 156.516L608.343 162.738L608.352 162.714L608.361 162.691L591.453 156.516ZM578.797 179.484L592.767 190.835L592.793 190.803L592.819 190.771L578.797 179.484ZM558.641 173.625L570.415 187.24L570.429 187.228L570.443 187.216L558.641 173.625ZM577.859 127.453L595.698 129.858L597.816 114.146L582.497 110.061L577.859 127.453ZM572.82 123.938L557.018 132.557L557.166 132.828L557.324 133.095L572.82 123.938ZM578.914 104.367L586.071 120.883L597.656 115.863L596.88 103.262L578.914 104.367ZM576.453 93.4688L591.839 84.1271L591.719 83.9296L591.594 83.7351L576.453 93.4688ZM573.758 91.125L566.215 107.468L566.44 107.572L566.667 107.67L573.758 91.125ZM553.953 102.609L569.052 112.408L569.102 112.331L569.151 112.254L553.953 102.609ZM542.234 129.797L524.913 124.902L524.91 124.911L524.908 124.92L542.234 129.797ZM538.367 167.648L520.583 170.427L520.625 170.697L520.675 170.966L538.367 167.648ZM540.594 173.508L555.571 163.523L555.383 163.242L555.186 162.969L540.594 173.508ZM544.227 176.555L537.242 193.144L537.619 193.303L538.004 193.445L544.227 176.555ZM540.477 180.938C531.387 180.938 527.06 178.742 524.916 176.83L500.959 203.701C511.784 213.352 525.816 216.938 540.477 216.938V180.938ZM524.842 176.764C522.67 174.849 520.039 170.849 520.039 161.086H484.039C484.039 177.417 488.674 192.87 501.033 203.767L524.842 176.764ZM520.039 161.086C520.039 157.377 520.424 152.98 521.305 147.832L485.82 141.762C484.67 148.489 484.039 154.951 484.039 161.086H520.039ZM521.311 147.793C522.152 142.814 523.458 137.726 525.26 132.521L491.24 120.745C488.823 127.727 487.004 134.748 485.814 141.8L521.311 147.793ZM525.326 132.325C529.457 119.931 535.018 111.029 541.493 104.779L516.492 78.877C504.998 89.9711 496.73 104.272 491.174 120.941L525.326 132.325ZM541.581 104.694C549.125 97.3129 557.554 93.8906 567.781 93.8906V57.8906C548.008 57.8906 530.579 65.0934 516.404 78.9621L541.581 104.694ZM567.781 93.8906C574.115 93.8906 575.997 95.6662 576.87 96.7518C578.346 98.5866 580.602 103.378 580.602 114.211H616.602C616.602 99.4975 613.721 85.1283 604.923 74.1896C595.523 62.5018 581.994 57.8906 567.781 57.8906V93.8906ZM580.602 114.211V114.445H616.602V114.211H580.602ZM592.909 131.522C594.277 131.977 596.738 132.68 599.773 132.68V96.6797C601.074 96.6797 602.109 96.8372 602.776 96.9706C603.462 97.1078 603.981 97.2646 604.294 97.369L592.909 131.522ZM599.773 132.68H601.18V96.6797H599.773V132.68ZM601.18 132.68C609.663 132.68 618.367 130.357 626.855 126.889L613.238 93.5639C607.195 96.0331 603.321 96.6797 601.18 96.6797V132.68ZM626.941 126.854C634.554 123.697 641.753 119.749 648.52 115.021L627.902 85.51C623.263 88.7512 618.353 91.4431 613.153 93.5992L626.941 126.854ZM621.074 105.774L623.184 112.336L657.457 101.32L655.347 94.7575L621.074 105.774ZM627.286 94.4143C624.441 97.4012 620.367 100.359 614.591 103.034L629.721 135.7C638.789 131.5 646.824 126.099 653.355 119.242L627.286 94.4143ZM614.525 103.065C608.823 105.734 602.293 107.75 594.822 108.995L600.74 144.505C611.082 142.781 620.802 139.875 629.787 135.67L614.525 103.065ZM579.848 125.202C579.028 134.696 577.213 143.037 574.545 150.341L608.361 162.691C612.256 152.025 614.659 140.523 615.715 128.298L579.848 125.202ZM574.563 150.293C571.855 157.644 568.534 163.527 564.775 168.198L592.819 190.771C599.372 182.629 604.489 173.2 608.343 162.738L574.563 150.293ZM564.827 168.134C561.179 172.623 557.271 175.758 553.134 177.876L569.538 209.921C578.525 205.32 586.259 198.845 592.767 190.835L564.827 168.134ZM553.134 177.876C549.1 179.941 544.957 180.938 540.477 180.938V216.938C550.684 216.938 560.447 214.575 569.538 209.921L553.134 177.876ZM550.086 195.375C558.561 195.375 565.433 191.549 570.415 187.24L546.866 160.01C546.487 160.339 546.556 160.193 547.107 159.952C547.715 159.686 548.75 159.375 550.086 159.375V195.375ZM570.443 187.216C575.358 182.948 579.33 177.621 582.606 171.862L551.316 154.059C549.436 157.364 547.861 159.146 546.838 160.034L570.443 187.216ZM582.606 171.862C585.959 165.969 588.665 159.4 590.845 152.317L556.437 141.73C554.866 146.835 553.119 150.89 551.316 154.059L582.606 171.862ZM590.845 152.317C593.037 145.191 594.641 137.694 595.698 129.858L560.021 125.048C559.202 131.119 557.994 136.668 556.437 141.73L590.845 152.317ZM582.497 110.061C582.987 110.191 583.977 110.531 585.141 111.343C586.359 112.193 587.479 113.362 588.317 114.78L557.324 133.095C561.238 139.718 567.361 143.283 573.221 144.845L582.497 110.061ZM588.622 115.318C589.55 117.019 589.414 118.047 589.414 117.375H553.414C553.414 122.015 554.216 127.419 557.018 132.557L588.622 115.318ZM589.414 117.375C589.414 116.473 589.594 117.194 588.792 118.513L558.02 99.8303C554.563 105.525 553.414 111.714 553.414 117.375H589.414ZM588.792 118.513C588.545 118.921 588.157 119.418 587.612 119.894C587.066 120.37 586.518 120.69 586.071 120.883L571.757 87.8512C565.987 90.3516 561.279 94.4634 558.02 99.8303L588.792 118.513ZM596.88 103.262C596.532 97.6091 595.554 90.246 591.839 84.1271L561.067 102.81C560.69 102.19 560.518 101.749 560.468 101.614C560.415 101.471 560.442 101.513 560.507 101.799C560.643 102.405 560.831 103.574 560.948 105.473L596.88 103.262ZM591.594 83.7351C589.136 79.9111 585.552 76.596 580.848 74.5804L566.667 107.67C564.152 106.591 562.364 104.839 561.312 103.202L591.594 83.7351ZM581.301 74.7817C577.082 72.8344 572.902 72.4219 569.773 72.4219V108.422C569.761 108.422 569.434 108.423 568.872 108.324C568.312 108.225 567.366 108 566.215 107.468L581.301 74.7817ZM569.773 72.4219C554.614 72.4219 544.651 83.6743 538.755 92.9645L569.151 112.254C570.07 110.807 570.867 109.742 571.518 108.981C572.173 108.215 572.6 107.852 572.76 107.728C572.912 107.611 572.717 107.792 572.16 108.004C571.568 108.23 570.741 108.422 569.773 108.422V72.4219ZM538.854 92.8109C532.876 102.023 528.32 112.844 524.913 124.902L559.556 134.692C562.242 125.187 565.499 117.883 569.052 112.408L538.854 92.8109ZM524.908 124.92C521.632 136.558 519.781 147.624 519.781 157.922H555.781C555.781 151.814 556.899 144.13 559.561 134.674L524.908 124.92ZM519.781 157.922C519.781 162.373 519.992 166.642 520.583 170.427L556.151 164.87C555.962 163.655 555.781 161.44 555.781 157.922H519.781ZM520.675 170.966C521.423 174.954 522.883 179.728 526.002 184.047L555.186 162.969C555.766 163.773 556.023 164.387 556.102 164.594C556.181 164.803 556.137 164.749 556.059 164.331L520.675 170.966ZM525.617 183.492C528.411 187.684 532.338 191.079 537.242 193.144L551.212 159.965C552.096 160.338 552.972 160.862 553.772 161.533C554.566 162.199 555.155 162.9 555.571 163.523L525.617 183.492ZM538.004 193.445C542.246 195.008 546.548 195.375 550.086 195.375V159.375C549.817 159.375 549.617 159.367 549.48 159.359C549.343 159.35 549.286 159.342 549.3 159.344C549.314 159.346 549.421 159.361 549.606 159.405C549.79 159.449 550.08 159.528 550.449 159.665L538.004 193.445ZM617.586 190.852L604.709 203.429L604.74 203.46L604.771 203.491L617.586 190.852ZM609.5 143.039L627.192 146.356L627.212 146.249L627.231 146.142L609.5 143.039ZM614.422 124.523L597.506 118.372L597.493 118.407L597.48 118.442L614.422 124.523ZM634.93 91.2422L622.458 78.2633L622.417 78.3021L622.377 78.3411L634.93 91.2422ZM684.031 80.2266L673.637 94.922L673.84 95.0656L674.047 95.2035L684.031 80.2266ZM688.953 89.9531H670.953L706.561 93.6915L688.953 89.9531ZM700.672 34.7578L698.258 16.9204L685.697 18.6201L683.064 31.0195L700.672 34.7578ZM736.18 29.9531L753.787 33.6942L759.1 8.68766L733.766 12.1157L736.18 29.9531ZM708.641 159.562L725.881 164.735L726.094 164.027L726.248 163.304L708.641 159.562ZM729.383 170.227L742.88 182.136L743.009 181.989L743.135 181.84L729.383 170.227ZM736.883 154.992V136.992H723.565L719.67 149.727L736.883 154.992ZM746.961 154.992L763.947 160.948L772.347 136.992H746.961V154.992ZM731.375 183.469L744.718 195.55L744.778 195.484L744.837 195.418L731.375 183.469ZM713.914 195.539L707.912 178.569L707.895 178.575L707.878 178.581L713.914 195.539ZM675.242 177.375L693.069 174.887L686.499 127.801L660.238 167.432L675.242 177.375ZM661.297 192.375L650.944 177.65L650.847 177.718L650.752 177.787L661.297 192.375ZM660.828 174.914L653.815 158.337L653.696 158.387L653.579 158.438L660.828 174.914ZM666.57 171.281L678.382 184.864L678.525 184.739L678.666 184.611L666.57 171.281ZM675.008 156.281L692.558 160.28L693.008 158.306V156.281H675.008ZM675.008 154.992L657.404 151.239L657.008 153.095V154.992H675.008ZM686.727 100.031L704.331 103.785L705.2 99.7088L704.189 95.6656L686.727 100.031ZM684.383 94.7578L698.681 83.8237L698.536 83.6338L698.386 83.4477L684.383 94.7578ZM667.508 94.875L657.262 80.0755L657.172 80.1381L657.082 80.2018L667.508 94.875ZM659.07 103.664L644.382 93.2598L644.317 93.3519L644.253 93.4449L659.07 103.664ZM647.469 130.266L664.755 135.284L664.782 135.19L664.809 135.096L647.469 130.266ZM644.305 144.68L662.106 147.35L662.109 147.328L662.112 147.307L644.305 144.68ZM647.703 173.625L660.893 161.377L660.501 160.954L660.083 160.558L647.703 173.625ZM639.734 181.406C634.67 181.406 632.157 179.992 630.401 178.212L604.771 203.491C614.265 213.118 626.517 217.406 639.734 217.406V181.406ZM630.463 178.274C628.339 176.1 625.742 171.393 625.742 160.852H589.742C589.742 176.872 593.708 192.166 604.709 203.429L630.463 178.274ZM625.742 160.852C625.742 156.472 626.199 151.651 627.192 146.356L591.808 139.722C590.457 146.927 589.742 153.981 589.742 160.852H625.742ZM627.231 146.142C628.143 140.926 629.516 135.75 631.363 130.605L597.48 118.442C594.952 125.484 593.044 132.652 591.769 139.936L627.231 146.142ZM631.338 130.675C635.602 118.949 641.12 110.334 647.482 104.143L622.377 78.3411C611.396 89.0256 603.242 102.598 597.506 118.372L631.338 130.675ZM647.402 104.221C654.282 97.6098 661.416 94.8281 669.5 94.8281V58.8281C651.49 58.8281 635.578 65.6559 622.458 78.2633L647.402 104.221ZM669.5 94.8281C671.754 94.8281 673.153 95.0308 673.897 95.2048C674.639 95.3784 674.365 95.4369 673.637 94.922L694.426 65.5311C686.776 60.1206 677.502 58.8281 669.5 58.8281V94.8281ZM674.047 95.2035C673.731 94.9929 672.812 94.2776 672.018 92.8593C671.195 91.3905 670.953 89.9637 670.953 89.0156H706.953C706.953 78.815 701.865 70.4821 694.016 65.2497L674.047 95.2035ZM670.953 89.0156V89.9531H706.953V89.0156H670.953ZM706.561 93.6915L718.279 38.4961L683.064 31.0195L671.346 86.2148L706.561 93.6915ZM703.086 52.5953L738.593 47.7906L733.766 12.1157L698.258 16.9204L703.086 52.5953ZM718.573 26.2121L691.034 155.821L726.248 163.304L753.787 33.6942L718.573 26.2121ZM691.4 154.39C690.125 158.641 689.586 162.989 689.586 167.297H725.586C725.586 165.98 725.75 165.172 725.881 164.735L691.4 154.39ZM689.586 167.297C689.586 172.73 690.794 181.569 698.272 187.926L721.587 160.496C723.716 162.305 724.761 164.356 725.219 165.708C725.636 166.938 725.586 167.611 725.586 167.297H689.586ZM698.272 187.926C704.664 193.359 712.384 194.203 717.43 194.203V158.203C716.793 158.203 716.939 158.133 717.598 158.308C718.281 158.49 719.865 159.032 721.587 160.496L698.272 187.926ZM717.43 194.203C728.047 194.203 736.67 189.174 742.88 182.136L715.886 158.317C715.369 158.903 715.275 158.826 715.708 158.609C715.923 158.502 716.208 158.391 716.545 158.311C716.883 158.232 717.188 158.203 717.43 158.203V194.203ZM743.135 181.84C748.265 175.765 751.68 168.154 754.096 160.257L719.67 149.727C718.023 155.112 716.438 157.657 715.63 158.613L743.135 181.84ZM736.883 172.992H746.961V136.992H736.883V172.992ZM729.975 149.036C726.261 159.626 722.071 166.836 717.913 171.52L744.837 195.418C753.023 186.196 759.223 174.421 763.947 160.948L729.975 149.036ZM718.032 171.388C714.503 175.285 711.112 177.437 707.912 178.569L719.916 212.509C729.528 209.109 737.779 203.215 744.718 195.55L718.032 171.388ZM707.878 178.581C705.421 179.456 702.449 180 698.797 180V216C706.082 216 713.189 214.903 719.95 212.497L707.878 178.581ZM698.797 180C695.423 180 694.591 179.176 694.521 179.116L670.963 206.338C679.018 213.308 688.89 216 698.797 216V180ZM694.521 179.116C694.433 179.039 694.243 178.862 693.993 178.351C693.719 177.788 693.325 176.715 693.069 174.887L657.415 179.863C658.792 189.728 662.808 199.28 670.963 206.338L694.521 179.116ZM660.238 167.432C656.856 172.535 653.684 175.724 650.944 177.65L671.65 207.1C678.91 201.995 685.034 195.184 690.247 187.318L660.238 167.432ZM650.752 177.787C647.29 180.29 643.782 181.406 639.734 181.406V217.406C651.468 217.406 662.335 213.835 671.842 206.963L650.752 177.787ZM655.32 194.203C660.061 194.203 664.375 193.019 668.077 191.39L653.579 158.438C653.375 158.528 654.018 158.203 655.32 158.203V194.203ZM667.842 191.491C671.754 189.836 675.267 187.572 678.382 184.864L654.759 157.698C654.28 158.115 653.965 158.273 653.815 158.337L667.842 191.491ZM678.666 184.611C685.917 178.032 690.428 169.63 692.558 160.28L657.458 152.282C656.776 155.276 655.661 156.874 654.474 157.951L678.666 184.611ZM693.008 156.281V154.992H657.008V156.281H693.008ZM692.612 158.746L704.331 103.785L669.122 96.2777L657.404 151.239L692.612 158.746ZM704.189 95.6656C703.243 91.8794 701.612 87.6556 698.681 83.8237L670.084 105.692C669.619 105.084 669.38 104.603 669.282 104.383C669.185 104.166 669.201 104.145 669.264 104.397L704.189 95.6656ZM698.386 83.4477C692.391 76.0262 683.991 73.7109 676.883 73.7109V109.711C676.79 109.711 675.861 109.701 674.503 109.149C673.026 108.549 671.541 107.506 670.38 106.068L698.386 83.4477ZM676.883 73.7109C669.468 73.7109 662.832 76.2191 657.262 80.0755L677.754 109.674C678.061 109.461 678.108 109.484 677.893 109.557C677.788 109.592 677.639 109.633 677.454 109.664C677.269 109.695 677.075 109.711 676.883 109.711V73.7109ZM657.082 80.2018C652.095 83.7455 647.916 88.2706 644.382 93.2598L673.759 114.068C675.537 111.558 676.984 110.223 677.934 109.548L657.082 80.2018ZM644.253 93.4449C638.095 102.374 633.525 113.243 630.129 125.435L664.809 135.096C667.506 125.413 670.671 118.548 673.888 113.883L644.253 93.4449ZM630.182 125.247C628.559 130.839 627.325 136.442 626.497 142.052L662.112 147.307C662.69 143.386 663.566 139.38 664.755 135.284L630.182 125.247ZM626.504 142.01C625.698 147.382 625.25 152.55 625.25 157.453H661.25C661.25 154.7 661.505 151.352 662.106 147.35L626.504 142.01ZM625.25 157.453C625.25 166.21 626.583 178.412 635.324 186.692L660.083 160.558C661.702 162.092 661.896 163.343 661.717 162.694C661.543 162.06 661.25 160.447 661.25 157.453H625.25ZM634.513 185.873C637.518 189.109 641.591 191.911 646.736 193.197L655.467 158.272C658.112 158.933 659.92 160.328 660.893 161.377L634.513 185.873ZM646.736 193.197C649.678 193.932 652.586 194.203 655.32 194.203V158.203C655.136 158.203 655.061 158.194 655.082 158.196C655.103 158.198 655.238 158.215 655.467 158.272L646.736 193.197ZM743.68 190.852L730.803 203.429L730.834 203.46L730.864 203.491L743.68 190.852ZM735.594 143.039L753.285 146.356L753.306 146.249L753.324 146.142L735.594 143.039ZM740.516 124.523L723.599 118.372L723.587 118.407L723.574 118.442L740.516 124.523ZM761.023 91.2422L748.552 78.2633L748.511 78.3021L748.471 78.3411L761.023 91.2422ZM810.125 80.2266L799.731 94.922L799.934 95.0656L800.14 95.2035L810.125 80.2266ZM815.047 90.7734H797.047L832.691 94.3347L815.047 90.7734ZM817.625 78V60H802.895L799.981 74.4388L817.625 78ZM852.195 78L869.807 81.7197L874.394 60H852.195V78ZM834.969 159.562L852.21 164.735L852.425 164.016L852.58 163.282L834.969 159.562ZM855.711 170.93L841.741 159.579L841.722 159.602L841.703 159.625L855.711 170.93ZM863.211 154.992V136.992H849.612L845.896 150.073L863.211 154.992ZM873.289 154.992L890.265 160.977L898.721 136.992H873.289V154.992ZM857.703 183.938L871.216 195.829L871.293 195.741L871.37 195.652L857.703 183.938ZM840.242 196.594L846.832 213.344L846.862 213.332L846.892 213.32L840.242 196.594ZM808.836 193.898L796.499 207.006L796.632 207.13L796.766 207.252L808.836 193.898ZM801.57 177.375L819.446 175.261L813.94 128.716L786.875 166.981L801.57 177.375ZM787.273 192.375L776.768 177.759L776.706 177.803L776.644 177.848L787.273 192.375ZM787.039 174.797L779.496 158.454L779.372 158.511L779.25 158.569L787.039 174.797ZM792.898 170.812L805.061 184.081L805.225 183.932L805.384 183.778L792.898 170.812ZM801.336 154.992L818.927 158.807L818.936 158.767L818.944 158.727L801.336 154.992ZM812.82 100.852L830.429 104.587L830.82 102.74V100.852H812.82ZM812.234 98.1562L794.927 103.101L795.147 103.871L795.434 104.618L812.234 98.1562ZM810.828 95.1094L825.805 85.1248L825.289 84.3503L824.695 83.6332L810.828 95.1094ZM793.602 94.875L783.356 80.0755L783.265 80.1381L783.176 80.2018L793.602 94.875ZM785.164 103.664L770.476 93.2598L770.41 93.3519L770.346 93.4449L785.164 103.664ZM773.562 130.266L790.849 135.284L790.876 135.19L790.902 135.096L773.562 130.266ZM770.398 144.68L788.199 147.35L788.203 147.328L788.206 147.307L770.398 144.68ZM773.797 173.625L786.987 161.377L786.595 160.954L786.176 160.558L773.797 173.625ZM765.828 181.406C760.764 181.406 758.251 179.992 756.495 178.212L730.864 203.491C740.359 213.118 752.611 217.406 765.828 217.406V181.406ZM756.556 178.274C754.432 176.1 751.836 171.393 751.836 160.852H715.836C715.836 176.872 719.802 192.166 730.803 203.429L756.556 178.274ZM751.836 160.852C751.836 156.472 752.293 151.651 753.285 146.356L717.902 139.722C716.551 146.927 715.836 153.981 715.836 160.852H751.836ZM753.324 146.142C754.237 140.926 755.61 135.75 757.457 130.605L723.574 118.442C721.046 125.484 719.138 132.652 717.863 139.936L753.324 146.142ZM757.432 130.675C761.696 118.949 767.213 110.334 773.576 104.143L748.471 78.3411C737.49 89.0256 729.336 102.598 723.599 118.372L757.432 130.675ZM773.495 104.221C780.375 97.6098 787.51 94.8281 795.594 94.8281V58.8281C777.584 58.8281 761.671 65.6559 748.552 78.2633L773.495 104.221ZM795.594 94.8281C797.847 94.8281 799.247 95.0308 799.991 95.2048C800.733 95.3784 800.459 95.4369 799.731 94.922L820.519 65.5311C812.87 60.1206 803.596 58.8281 795.594 58.8281V94.8281ZM800.14 95.2035C799.824 94.9929 798.906 94.2776 798.111 92.8593C797.289 91.3905 797.047 89.9637 797.047 89.0156H833.047C833.047 78.815 827.958 70.4821 820.11 65.2497L800.14 95.2035ZM797.047 89.0156V90.7734H833.047V89.0156H797.047ZM832.691 94.3347L835.269 81.5612L799.981 74.4388L797.403 87.2122L832.691 94.3347ZM817.625 96H852.195V60H817.625V96ZM834.584 74.2803L817.357 155.843L852.58 163.282L869.807 81.7197L834.584 74.2803ZM817.728 154.39C816.453 158.641 815.914 162.989 815.914 167.297H851.914C851.914 165.98 852.078 165.172 852.21 164.735L817.728 154.39ZM815.914 167.297C815.914 173.305 817.334 181.153 823.355 187.46C829.525 193.924 837.483 195.609 843.758 195.609V159.609C843.47 159.609 846.507 159.576 849.395 162.603C852.135 165.472 851.914 168.164 851.914 167.297H815.914ZM843.758 195.609C855.154 195.609 863.842 189.516 869.719 182.234L841.703 159.625C840.998 160.499 840.792 160.48 841.247 160.226C841.486 160.093 841.853 159.926 842.333 159.798C842.817 159.669 843.306 159.609 843.758 159.609V195.609ZM869.681 182.28C874.822 175.953 878.197 168.109 880.526 159.911L845.896 150.073C844.319 155.626 842.694 158.406 841.741 159.579L869.681 182.28ZM863.211 172.992H873.289V136.992H863.211V172.992ZM856.313 149.007C852.494 159.839 848.246 167.312 844.036 172.223L871.37 195.652C879.347 186.344 885.49 174.52 890.265 160.977L856.313 149.007ZM844.19 172.046C840.684 176.031 837.141 178.456 833.592 179.867L846.892 213.32C856.312 209.575 864.41 203.563 871.216 195.829L844.19 172.046ZM833.652 179.844C831.064 180.862 828.268 181.406 825.125 181.406V217.406C832.607 217.406 839.889 216.076 846.832 213.344L833.652 179.844ZM825.125 181.406C821.666 181.406 820.912 180.551 820.906 180.545L796.766 207.252C804.885 214.59 814.99 217.406 825.125 217.406V181.406ZM821.172 180.791C821.108 180.73 820.844 180.473 820.509 179.71C820.15 178.895 819.71 177.491 819.446 175.261L783.695 179.489C784.883 189.531 788.53 199.505 796.499 207.006L821.172 180.791ZM786.875 166.981C783.195 172.183 779.772 175.6 776.768 177.759L797.779 206.991C804.775 201.963 810.883 195.38 816.266 187.769L786.875 166.981ZM776.644 177.848C773.302 180.294 769.872 181.406 765.828 181.406V217.406C777.565 217.406 788.432 213.831 797.903 206.902L776.644 177.848ZM781.414 194.203C786.405 194.203 790.937 192.892 794.828 191.024L779.25 158.569C779.235 158.577 780.017 158.203 781.414 158.203V194.203ZM794.582 191.14C798.516 189.324 801.999 186.888 805.061 184.081L780.735 157.544C780.047 158.174 779.624 158.394 779.496 158.454L794.582 191.14ZM805.384 183.778C812.506 176.92 816.868 168.301 818.927 158.807L783.745 151.177C782.991 154.652 781.728 156.58 780.413 157.847L805.384 183.778ZM818.944 158.727L830.429 104.587L795.212 97.1165L783.728 151.257L818.944 158.727ZM830.82 100.852C830.82 97.1783 829.929 94.0211 829.035 91.6946L795.434 104.618C795.321 104.323 794.82 102.962 794.82 100.852H830.82ZM829.542 93.2113C828.723 90.3446 827.473 87.6265 825.805 85.1248L795.851 105.094C795.433 104.467 795.121 103.78 794.927 103.101L829.542 93.2113ZM824.695 83.6332C818.89 76.6185 810.843 73.7109 802.977 73.7109V109.711C802.628 109.711 801.623 109.648 800.309 109.08C798.929 108.482 797.775 107.569 796.961 106.586L824.695 83.6332ZM802.977 73.7109C795.562 73.7109 788.926 76.2191 783.356 80.0755L803.847 109.674C804.155 109.461 804.202 109.484 803.987 109.557C803.881 109.592 803.733 109.633 803.548 109.664C803.362 109.695 803.169 109.711 802.977 109.711V73.7109ZM783.176 80.2018C778.188 83.7455 774.01 88.2706 770.476 93.2598L799.852 114.068C801.631 111.558 803.077 110.223 804.027 109.548L783.176 80.2018ZM770.346 93.4449C764.188 102.374 759.619 113.243 756.223 125.435L790.902 135.096C793.6 125.413 796.765 118.548 799.982 113.883L770.346 93.4449ZM756.276 125.247C754.653 130.839 753.419 136.442 752.591 142.052L788.206 147.307C788.784 143.386 789.66 139.38 790.849 135.284L756.276 125.247ZM752.598 142.01C751.792 147.382 751.344 152.55 751.344 157.453H787.344C787.344 154.7 787.599 151.352 788.199 147.35L752.598 142.01ZM751.344 157.453C751.344 166.21 752.677 178.412 761.417 186.692L786.176 160.558C787.796 162.092 787.99 163.343 787.811 162.694C787.637 162.06 787.344 160.447 787.344 157.453H751.344ZM760.607 185.873C763.611 189.109 767.685 191.911 772.83 193.197L781.561 158.272C784.206 158.933 786.014 160.328 786.987 161.377L760.607 185.873ZM772.83 193.197C775.772 193.932 778.68 194.203 781.414 194.203V158.203C781.229 158.203 781.154 158.194 781.175 158.196C781.196 158.198 781.332 158.215 781.561 158.272L772.83 193.197ZM879.617 78V60H865.032L862.008 74.2684L879.617 78ZM914.188 78L931.822 81.6102L936.246 60H914.188V78ZM911.141 92.8828L893.506 89.2726L882.685 142.132L923.075 106.357L911.141 92.8828ZM924.5 82.5703L915.545 66.9561L915.443 67.0142L915.343 67.0736L924.5 82.5703ZM952.508 83.5078L938.8 95.174L938.821 95.198L938.841 95.2221L952.508 83.5078ZM955.672 89.25L938.535 94.7582L938.565 94.8503L938.596 94.9421L955.672 89.25ZM952.508 107.883L965.827 119.991L966.003 119.797L966.174 119.597L952.508 107.883ZM946.766 111.984L939.403 95.5592L939.294 95.608L939.186 95.6582L946.766 111.984ZM931.414 109.406L915.127 117.071L915.308 117.454L915.506 117.828L931.414 109.406ZM930.125 105.539L947.817 102.222L947.782 102.036L947.743 101.852L930.125 105.539ZM928.016 98.8594L943.157 89.1257L942.965 88.8275L942.762 88.537L928.016 98.8594ZM907.977 106.828L895.84 93.5354L891.559 97.4437L890.364 103.115L907.977 106.828ZM888.758 198V216H903.359L906.371 201.713L888.758 198ZM854.188 198L836.579 194.268L831.973 216H854.188V198ZM879.617 96H914.188V60H879.617V96ZM896.553 74.3898L893.506 89.2726L928.775 96.493L931.822 81.6102L896.553 74.3898ZM923.075 106.357C928.266 101.76 931.706 99.2202 933.657 98.067L915.343 67.0736C910.419 69.9829 904.953 74.3184 899.206 79.4082L923.075 106.357ZM933.455 98.1845C936.603 96.3793 938.739 96 940.086 96V60C931.277 60 923.022 62.6676 915.545 66.9561L933.455 98.1845ZM940.086 96C940.498 96 940.287 96.0645 939.763 95.832C939.519 95.7241 939.292 95.5878 939.1 95.4424C938.911 95.2995 938.815 95.1917 938.8 95.174L966.216 71.8417C959.41 63.8446 950.102 60 940.086 60V96ZM938.841 95.2221C938.734 95.097 938.648 94.9696 938.588 94.8607C938.53 94.7542 938.52 94.7093 938.535 94.7582L972.808 83.7418C971.42 79.4219 969.235 75.3648 966.174 71.7936L938.841 95.2221ZM938.596 94.9421C938.635 95.0596 938.727 95.3876 938.727 96.0469H974.727C974.727 91.8624 974.115 87.6591 972.748 83.5579L938.596 94.9421ZM938.727 96.0469C938.727 96.2663 938.698 96.3833 938.662 96.487L972.682 108.263C974.052 104.304 974.727 100.202 974.727 96.0469H938.727ZM938.662 96.487C938.675 96.4511 938.702 96.3858 938.746 96.3091C938.79 96.2327 938.828 96.1841 938.841 96.1686L966.174 119.597C969.043 116.251 971.236 112.44 972.682 108.263L938.662 96.487ZM939.189 95.7747C939.278 95.6768 939.369 95.5996 939.438 95.5501C939.505 95.5024 939.506 95.5128 939.403 95.5592L954.129 128.41C958.497 126.451 962.485 123.667 965.827 119.991L939.189 95.7747ZM939.186 95.6582C939.29 95.6098 939.386 95.573 939.468 95.5461C939.55 95.5192 939.61 95.505 939.642 95.4984C939.708 95.4847 939.634 95.5078 939.383 95.5078V131.508C944.385 131.508 949.484 130.568 954.346 128.311L939.186 95.6582ZM939.383 95.5078C939.297 95.5078 939.617 95.498 940.229 95.6259C940.847 95.7553 941.911 96.0573 943.168 96.7648L925.519 128.141C930.439 130.909 935.537 131.508 939.383 131.508V95.5078ZM943.168 96.7648C945.075 97.8374 946.491 99.4145 947.322 100.984L915.506 117.828C917.743 122.054 921.112 125.663 925.519 128.141L943.168 96.7648ZM947.701 101.742C947.629 101.59 947.73 101.759 947.817 102.222L912.433 108.856C912.989 111.819 913.949 114.567 915.127 117.071L947.701 101.742ZM947.743 101.852C947.098 98.7669 945.895 93.3854 943.157 89.1257L912.874 108.593C912.587 108.146 912.382 107.771 912.248 107.509C912.112 107.242 912.021 107.037 911.968 106.912C911.869 106.677 911.854 106.607 911.906 106.77C911.953 106.92 912.034 107.197 912.142 107.626C912.249 108.051 912.371 108.58 912.507 109.227L947.743 101.852ZM942.762 88.537C938.061 81.8213 930.964 79.6875 925.438 79.6875V115.688C924.057 115.688 921.915 115.459 919.513 114.367C916.98 113.216 914.823 111.4 913.269 109.182L942.762 88.537ZM925.438 79.6875C919.561 79.6875 913.339 80.9314 907.622 84.362L926.144 115.232C925.666 115.519 925.276 115.645 925.089 115.691C924.919 115.733 925.006 115.688 925.438 115.688V79.6875ZM907.622 84.362C903.751 86.6844 899.748 89.9671 895.84 93.5354L920.113 120.121C923.393 117.127 925.327 115.722 926.144 115.232L907.622 84.362ZM890.364 103.115L871.145 194.287L906.371 201.713L925.589 110.541L890.364 103.115ZM888.758 180H854.188V216H888.758V180ZM871.796 201.732L897.226 81.7316L862.008 74.2684L836.579 194.268L871.796 201.732Z" fill="black"/>
</svg>
