<svg width="1000" height="1000" viewBox="0 0 1000 1000" fill="none" xmlns="http://www.w3.org/2000/svg">
<g clip-path="url(#clip0)">
<path d="M443.044 533.386C382.586 486.387 340.435 487.514 308.445 500.793" stroke="white" stroke-width="6"/>
<path d="M444.082 534.09C389.325 512.261 365.182 510.45 312.067 534.09" stroke="white" stroke-width="6"/>
<path d="M527.846 534.212C566.334 450.335 664.484 432.317 715.858 479.943C707.146 575.522 579.191 554.871 527.846 534.212Z" fill="url(#paint0_linear)" stroke="white" stroke-width="6"/>
<path d="M634.5 547.5C588.636 513.638 609.136 469.287 634.5 458C669.94 490.48 657.779 525.386 634.5 547.5Z" fill="black" stroke="black" stroke-linecap="round" stroke-linejoin="round"/>
<path d="M606.146 319.895C620.927 233.516 696.412 229.822 760.264 232.487C763.097 346.752 732.979 370.349 677.653 389.403" stroke="white" stroke-width="12"/>
<path d="M310.597 382.124C221.856 381.02 206.206 306.102 198.758 241.811C312.603 220.881 340.975 247.269 368.797 299.59" stroke="white" stroke-width="12"/>
<path d="M539.536 596.808C526.606 590.415 476.844 590.123 460.645 596.808C462.824 608.576 474.244 632.113 502.488 632.113C513.675 631.241 536.747 622.96 539.536 596.808Z" fill="white"/>
<path d="M292.837 696.174C344.094 644.219 478.893 568.164 505.539 683.97C516 729.434 432.749 762.399 339.474 778.553C287.461 787.561 179.948 781.255 166 683.97C186.922 709.686 241.579 748.129 292.837 696.174Z" fill="white" stroke="white"/>
<path d="M706.104 695.932C654.521 644.149 518.867 568.347 492.052 683.768C481.525 729.081 565.303 761.936 659.17 778.036C711.514 787.014 819.709 780.73 833.745 683.768C812.691 709.399 757.687 747.714 706.104 695.932Z" fill="white" stroke="white"/>
<circle cx="366.966" cy="520.072" r="99.6528" stroke="white" stroke-width="12"/>
<rect x="251.708" y="478.452" width="19.2096" height="53.36" rx="5" fill="white"/>
<rect x="251.708" y="545.685" width="19.2096" height="29.8816" rx="5" fill="white"/>
<rect x="251.708" y="586.239" width="19.2096" height="29.8816" rx="5" fill="white"/>
<rect x="251.708" y="625.13" width="19.2096" height="29.8816" rx="5" fill="white"/>
<rect x="433.954" y="766.332" width="131.758" height="201.668" rx="44" stroke="white" stroke-width="12"/>
<path d="M444.854 830.384H438.854V836.384V846.041V852.041H444.854H476.24C482.221 852.041 487.069 847.193 487.069 841.212C487.069 835.232 482.221 830.384 476.24 830.384H444.854Z" stroke="white" stroke-width="12"/>
<path d="M444.854 881.084H438.854V887.084V897.949V903.949H444.854H475.637C481.951 903.949 487.069 898.83 487.069 892.517C487.069 886.203 481.951 881.084 475.637 881.084H444.854Z" stroke="white" stroke-width="12"/>
<path d="M554.706 830.384H560.706V836.384V846.041V852.041H554.706H523.32C517.339 852.041 512.491 847.193 512.491 841.212C512.491 835.232 517.339 830.384 523.32 830.384H554.706Z" stroke="white" stroke-width="12"/>
<path d="M554.706 881.084H560.706V887.084V897.949V903.949H554.706H523.923C517.609 903.949 512.491 898.83 512.491 892.517C512.491 886.203 517.609 881.084 523.923 881.084H554.706Z" stroke="white" stroke-width="12"/>
<ellipse cx="481.069" cy="352.641" rx="282.403" ry="63.6503" fill="white"/>
<path d="M305.482 30C326.699 153.643 386.691 287.528 305.482 348.252C386.203 386.052 566.96 438.972 644.219 348.252C620.807 313.622 620.807 177.054 644.219 30C580.568 44.6323 423.125 65.1174 305.482 30Z" fill="white"/>
<path d="M415.955 302.16C492.043 315.329 591.028 286.796 628.123 243.631C628.123 260.458 626.66 293.381 636.902 312.403C585.446 337.034 519.113 345.325 415.955 302.16Z" fill="black"/>
</g>
<defs>
<linearGradient id="paint0_linear" x1="626.894" y1="451.766" x2="617.72" y2="552.412" gradientUnits="userSpaceOnUse">
<stop stop-color="#4ED38B"/>
<stop offset="1" stop-color="#2E7951"/>
</linearGradient>
<clipPath id="clip0">
<rect width="1000" height="1000" fill="white"/>
</clipPath>
</defs>
</svg>
