<svg width="1000" height="1000" viewBox="0 0 1000 1000" fill="none" xmlns="http://www.w3.org/2000/svg">
<g clip-path="url(#clip0)">
<path d="M116.596 338.029L114.633 323.158L104.135 324.544L101.926 334.899L116.596 338.029ZM149.145 333.732L163.818 336.843L168.219 316.084L147.181 318.861L149.145 333.732ZM133.568 407.209L118.894 404.098L114.759 423.605L134.648 422.17L133.568 407.209ZM153.441 397.541L143.182 386.598L143.166 386.613L143.149 386.629L153.441 397.541ZM167.084 377.131L153.245 371.344L153.222 371.4L153.199 371.456L167.084 377.131ZM165.688 331.906L177.594 322.783L177.442 322.585L177.284 322.392L165.688 331.906ZM156.986 325.461L150.842 339.145L150.96 339.198L151.078 339.248L156.986 325.461ZM120.785 326.75L115.913 312.563L115.891 312.571L115.869 312.579L120.785 326.75ZM91.5664 354.143L77.5779 348.728L77.5525 348.793L77.5277 348.859L91.5664 354.143ZM89.3105 387.551L103.647 383.139L103.527 382.749L103.386 382.365L89.3105 387.551ZM90.3848 390.021L103.408 382.579L103.329 382.441L103.247 382.304L90.3848 390.021ZM90.8145 391.525V406.525H105.814V391.525H90.8145ZM73.4121 386.799L83.2106 375.441L83.1427 375.383L83.0741 375.325L73.4121 386.799ZM70.4043 355.969L84.1028 362.08L84.12 362.042L84.1371 362.003L70.4043 355.969ZM79.2129 342.326L90.536 352.164L90.555 352.142L90.574 352.12L79.2129 342.326ZM91.9961 330.725L100.798 342.871L100.813 342.86L100.829 342.848L91.9961 330.725ZM108.217 321.271L102.028 307.608L102.006 307.618L101.984 307.628L108.217 321.271ZM184.057 326.213L194.378 315.329L194.351 315.303L194.324 315.278L184.057 326.213ZM193.295 339.855L179.315 345.292L179.347 345.376L179.381 345.46L193.295 339.855ZM192.006 377.453L178.168 371.664L178.143 371.724L178.118 371.785L192.006 377.453ZM179.545 396.252L168.869 385.715L168.839 385.746L168.808 385.777L179.545 396.252ZM159.027 410.217L164.921 424.01L164.951 423.998L164.981 423.985L159.027 410.217ZM131.742 415.266V400.266H119.613L117.074 412.126L131.742 415.266ZM118.314 478V493H130.444L132.982 481.14L118.314 478ZM86.7324 478L72.0626 474.87L68.1945 493H86.7324V478ZM118.559 352.9L151.108 348.603L147.181 318.861L114.633 323.158L118.559 352.9ZM134.471 330.622L118.894 404.098L148.242 410.32L163.818 336.843L134.471 330.622ZM134.648 422.17C145.814 421.364 155.548 416.173 163.733 408.453L143.149 386.629C138.731 390.797 135.216 392.051 132.489 392.248L134.648 422.17ZM163.701 408.484C171.2 401.454 176.896 392.772 180.969 382.806L153.199 371.456C150.54 377.961 147.141 382.886 143.182 386.598L163.701 408.484ZM180.923 382.918C184.948 373.293 187.025 363.31 187.025 353.068H157.025C157.025 359.155 155.809 365.214 153.245 371.344L180.923 382.918ZM187.025 353.068C187.025 341.975 184.262 331.486 177.594 322.783L153.781 341.029C155.563 343.356 157.025 346.975 157.025 353.068H187.025ZM177.284 322.392C173.379 317.633 168.486 314.07 162.895 311.674L151.078 339.248C152.505 339.86 153.412 340.593 154.091 341.421L177.284 322.392ZM163.13 311.777C157.327 309.171 151.077 308.098 144.74 308.098V338.098C147.714 338.098 149.627 338.599 150.842 339.145L163.13 311.777ZM144.74 308.098C134.5 308.098 124.83 309.501 115.913 312.563L125.657 340.937C130.92 339.129 137.22 338.098 144.74 338.098V308.098ZM115.869 312.579C107.09 315.624 99.2583 320.146 92.6451 326.28L113.046 348.275C116.316 345.242 120.444 342.746 125.702 340.921L115.869 312.579ZM92.6451 326.28C85.9344 332.504 80.9281 340.073 77.5779 348.728L105.555 359.557C107.361 354.892 109.874 351.217 113.046 348.275L92.6451 326.28ZM77.5277 348.859C74.2888 357.465 72.8066 366.778 72.8066 376.594H102.807C102.807 369.794 103.831 364.14 105.605 359.426L77.5277 348.859ZM72.8066 376.594C72.8066 382.041 73.3712 387.676 75.2354 392.736L103.386 382.365C103.245 381.982 102.807 380.313 102.807 376.594H72.8066ZM74.9739 391.962C75.5591 393.864 76.3766 395.829 77.5224 397.739L103.247 382.304C103.534 382.781 103.635 383.1 103.647 383.139L74.9739 391.962ZM77.3611 397.464C76.5515 396.047 75.8145 394.008 75.8145 391.525H105.814C105.814 388.04 104.791 384.999 103.408 382.579L77.3611 397.464ZM90.8145 376.525C87.7683 376.525 85.7169 376.217 84.4336 375.868C83.178 375.527 82.9737 375.237 83.2106 375.441L63.6136 398.156C71.2745 404.766 81.4369 406.525 90.8145 406.525V376.525ZM83.0741 375.325C83.2371 375.462 83.1183 375.48 82.8981 374.881C82.6377 374.173 82.2891 372.709 82.2891 370.148H52.2891C52.2891 380.242 55.0088 390.911 63.7501 398.272L83.0741 375.325ZM82.2891 370.148C82.2891 367.586 82.8296 364.934 84.1028 362.08L56.7058 349.857C53.8254 356.313 52.2891 363.115 52.2891 370.148H82.2891ZM84.1371 362.003C85.5382 358.814 87.6123 355.529 90.536 352.164L67.8898 332.488C63.2223 337.86 59.424 343.67 56.6715 349.935L84.1371 362.003ZM90.574 352.12C93.316 348.94 96.6935 345.845 100.798 342.871L83.1945 318.578C77.4158 322.766 72.2713 327.405 67.8517 332.532L90.574 352.12ZM100.829 342.848C105.006 339.805 109.538 337.159 114.449 334.915L101.984 307.628C95.2938 310.684 89.0125 314.339 83.1632 318.601L100.829 342.848ZM114.406 334.935C124.853 330.203 134.855 328 144.525 328V298C130.134 298 115.93 301.311 102.028 307.608L114.406 334.935ZM144.525 328C158.933 328 167.983 331.696 173.789 337.148L194.324 315.278C181.368 303.112 164.063 298 144.525 298V328ZM173.735 337.097C176.34 339.567 178.14 342.272 179.315 345.292L207.275 334.419C204.439 327.127 200.081 320.737 194.378 315.329L173.735 337.097ZM179.381 345.46C180.709 348.757 181.41 352.326 181.41 356.291H211.41C211.41 348.655 210.034 341.266 207.209 334.251L179.381 345.46ZM181.41 356.291C181.41 361.251 180.394 366.344 178.168 371.664L205.844 383.242C209.49 374.526 211.41 365.51 211.41 356.291H181.41ZM178.118 371.785C176.012 376.945 172.964 381.566 168.869 385.715L190.221 406.789C197.011 399.909 202.271 391.998 205.894 383.122L178.118 371.785ZM168.808 385.777C164.519 390.174 159.331 393.743 153.074 396.449L164.981 423.985C174.623 419.815 183.113 414.075 190.282 406.727L168.808 385.777ZM153.134 396.423C147.317 398.908 140.65 400.266 132.924 400.266V430.266C144.247 430.266 154.982 428.257 164.921 424.01L153.134 396.423ZM132.924 400.266H131.742V430.266H132.924V400.266ZM117.074 412.126L103.647 474.86L132.982 481.14L146.41 418.405L117.074 412.126ZM118.314 463H86.7324V493H118.314V463ZM101.402 481.13L131.266 341.159L101.926 334.899L72.0626 474.87L101.402 481.13ZM198.988 470.91L208.97 459.714L208.94 459.686L208.909 459.659L198.988 470.91ZM190.395 429.23L205.18 431.76L205.183 431.744L205.185 431.728L190.395 429.23ZM194.691 412.58L208.866 417.487L208.894 417.405L208.922 417.324L194.691 412.58ZM213.705 380.676L224.122 391.468L224.159 391.433L224.195 391.397L213.705 380.676ZM277.514 401.408H262.514V412.22L272.77 415.638L277.514 401.408ZM297.172 397.541L302.846 411.427L302.881 411.412L302.917 411.397L297.172 397.541ZM313.822 388.41L328.103 383.82L321.886 364.479L305.232 376.114L313.822 388.41ZM315.756 394.426L326.618 404.771L332.763 398.318L330.036 389.836L315.756 394.426ZM299.105 405.92L292.801 392.309L292.774 392.322L292.746 392.335L299.105 405.92ZM276.762 412.688L274.296 397.892L262.818 399.805L261.817 411.397L276.762 412.688ZM270.961 439.973L285.036 445.158L285.043 445.138L285.051 445.118L270.961 439.973ZM259.359 461.027L271.001 470.486L271.023 470.459L271.045 470.432L259.359 461.027ZM240.883 455.656L250.695 467.002L250.707 466.992L250.718 466.982L240.883 455.656ZM258.5 413.332L273.365 415.336L275.131 402.243L262.365 398.839L258.5 413.332ZM253.881 410.109L240.712 417.292L240.836 417.518L240.967 417.74L253.881 410.109ZM259.467 392.17L265.431 405.933L275.085 401.75L274.438 391.249L259.467 392.17ZM257.211 382.18L270.033 374.395L269.933 374.23L269.829 374.068L257.211 382.18ZM254.74 380.031L248.454 393.651L248.642 393.737L248.831 393.818L254.74 380.031ZM236.586 390.559L249.169 398.724L249.21 398.66L249.251 398.596L236.586 390.559ZM225.844 415.48L211.409 411.401L211.407 411.409L211.405 411.416L225.844 415.48ZM222.299 450.178L207.479 452.493L207.514 452.718L207.556 452.942L222.299 450.178ZM224.34 455.549L236.821 447.228L236.665 446.994L236.5 446.766L224.34 455.549ZM227.67 458.342L221.849 472.166L222.164 472.299L222.484 472.417L227.67 458.342ZM224.232 463.859C215.669 463.859 211.298 461.789 208.97 459.714L189.006 482.106C198.567 490.631 211.025 493.859 224.232 493.859V463.859ZM208.909 459.659C206.493 457.529 203.998 453.385 203.998 444.162H173.998C173.998 458.858 178.163 472.546 189.068 482.161L208.909 459.659ZM203.998 444.162C203.998 440.661 204.361 436.544 205.18 431.76L175.609 426.701C174.566 432.802 173.998 438.64 173.998 444.162H203.998ZM205.185 431.728C205.97 427.077 207.189 422.332 208.866 417.487L180.517 407.673C178.327 414 176.681 420.355 175.604 426.733L205.185 431.728ZM208.922 417.324C212.768 405.785 217.978 397.399 224.122 391.468L203.288 369.883C192.961 379.851 185.495 392.735 180.461 407.837L208.922 417.324ZM224.195 391.397C231.387 384.361 239.489 381.066 249.262 381.066V351.066C231.534 351.066 215.932 357.511 203.215 369.954L224.195 391.397ZM249.262 381.066C255.396 381.066 257.606 382.812 258.762 384.249C260.42 386.31 262.514 391.101 262.514 401.193H292.514C292.514 387.868 289.899 375.095 282.139 365.447C273.878 355.175 261.962 351.066 249.262 351.066V381.066ZM262.514 401.193V401.408H292.514V401.193H262.514ZM272.77 415.638C273.949 416.031 276.033 416.623 278.588 416.623V386.623C279.658 386.623 280.507 386.753 281.046 386.861C281.601 386.972 282.016 387.097 282.257 387.178L272.77 415.638ZM278.588 416.623H279.877V386.623H278.588V416.623ZM279.877 416.623C287.389 416.623 295.167 414.564 302.846 411.427L291.498 383.655C285.857 385.961 282.104 386.623 279.877 386.623V416.623ZM302.917 411.397C309.795 408.545 316.299 404.978 322.413 400.707L305.232 376.114C300.89 379.147 296.294 381.667 291.427 383.685L302.917 411.397ZM299.542 393L301.475 399.016L330.036 389.836L328.103 383.82L299.542 393ZM304.894 384.081C302.133 386.98 298.233 389.793 292.801 392.309L305.41 419.531C313.585 415.745 320.785 410.895 326.618 404.771L304.894 384.081ZM292.746 392.335C287.382 394.845 281.264 396.73 274.296 397.892L279.228 427.483C288.588 425.923 297.365 423.297 305.465 419.505L292.746 392.335ZM261.817 411.397C261.056 420.214 259.367 427.992 256.871 434.827L285.051 445.118C288.57 435.482 290.749 425.07 291.706 413.978L261.817 411.397ZM256.886 434.787C254.355 441.655 251.237 447.196 247.674 451.622L271.045 470.432C276.935 463.114 281.551 454.618 285.036 445.158L256.886 434.787ZM247.718 451.568C244.255 455.831 240.513 458.843 236.518 460.888L250.189 487.592C258.225 483.479 265.154 477.682 271.001 470.486L247.718 451.568ZM236.518 460.888C232.61 462.889 228.578 463.859 224.232 463.859V493.859C233.351 493.859 242.066 491.75 250.189 487.592L236.518 460.888ZM233.041 474.094C240.338 474.094 246.302 470.801 250.695 467.002L231.071 444.311C230.634 444.688 230.573 444.646 230.913 444.496C231.3 444.327 232.045 444.094 233.041 444.094V474.094ZM250.718 466.982C255.061 463.21 258.602 458.475 261.547 453.299L235.472 438.463C233.691 441.594 232.147 443.376 231.048 444.331L250.718 466.982ZM261.547 453.299C264.556 448.01 266.997 442.093 268.969 435.683L240.296 426.86C238.831 431.622 237.19 435.444 235.472 438.463L261.547 453.299ZM268.969 435.683C270.953 429.237 272.407 422.445 273.365 415.336L243.635 411.328C242.874 416.966 241.75 422.135 240.296 426.86L268.969 435.683ZM262.365 398.839C262.675 398.921 263.417 399.167 264.317 399.795C265.261 400.454 266.139 401.368 266.795 402.478L240.967 417.74C244.313 423.403 249.556 426.471 254.635 427.826L262.365 398.839ZM267.049 402.927C267.401 403.572 267.536 404.069 267.581 404.281C267.624 404.482 267.592 404.445 267.592 404.094H237.592C237.592 408.182 238.299 412.867 240.712 417.292L267.049 402.927ZM267.592 404.094C267.592 403.591 267.644 403.42 267.625 403.498C267.601 403.593 267.506 403.921 267.24 404.359L241.596 388.79C238.604 393.717 237.592 399.103 237.592 404.094H267.592ZM267.24 404.359C267.089 404.608 266.832 404.943 266.454 405.273C266.076 405.603 265.705 405.814 265.431 405.933L253.503 378.407C248.499 380.575 244.422 384.135 241.596 388.79L267.24 404.359ZM274.438 391.249C274.123 386.115 273.239 379.676 270.033 374.395L244.389 389.964C244.103 389.493 243.984 389.178 243.965 389.126C243.943 389.068 243.986 389.172 244.056 389.485C244.205 390.141 244.385 391.297 244.495 393.091L274.438 391.249ZM269.829 374.068C267.721 370.79 264.659 367.963 260.649 366.244L248.831 393.818C246.826 392.959 245.411 391.564 244.593 390.291L269.829 374.068ZM261.026 366.412C257.425 364.75 253.832 364.387 251.088 364.387V394.387C251.146 394.387 250.935 394.392 250.522 394.32C250.111 394.247 249.371 394.074 248.454 393.651L261.026 366.412ZM251.088 364.387C238.006 364.387 229.264 374.102 223.921 382.521L249.251 398.596C251.058 395.748 252.348 394.496 252.911 394.062C253.334 393.736 252.645 394.387 251.088 394.387V364.387ZM224.003 382.393C218.624 390.682 214.503 400.454 211.409 411.401L240.278 419.56C242.771 410.741 245.811 403.899 249.169 398.724L224.003 382.393ZM211.405 411.416C208.428 421.994 206.762 431.996 206.762 441.262H236.762C236.762 435.488 237.817 428.303 240.283 419.545L211.405 411.416ZM206.762 441.262C206.762 445.303 206.953 449.131 207.479 452.493L237.119 447.862C236.928 446.642 236.762 444.525 236.762 441.262H206.762ZM207.556 452.942C208.218 456.474 209.496 460.615 212.18 464.331L236.5 446.766C236.941 447.378 237.118 447.82 237.153 447.911C237.188 448.003 237.127 447.866 237.042 447.413L207.556 452.942ZM211.859 463.869C214.266 467.479 217.639 470.394 221.849 472.166L233.491 444.517C234.166 444.802 234.84 445.204 235.456 445.721C236.068 446.234 236.514 446.768 236.821 447.228L211.859 463.869ZM222.484 472.417C226.143 473.765 229.891 474.094 233.041 474.094V444.094C232.766 444.094 232.552 444.086 232.392 444.076C232.232 444.066 232.142 444.055 232.113 444.051C232.083 444.047 232.134 444.052 232.253 444.08C232.371 444.109 232.578 444.165 232.855 444.267L222.484 472.417ZM294.916 471.447L284.185 481.928L284.211 481.954L284.237 481.98L294.916 471.447ZM287.504 427.619L302.247 430.383L302.264 430.294L302.279 430.205L287.504 427.619ZM292.016 410.646L277.919 405.52L277.908 405.549L277.898 405.579L292.016 410.646ZM310.814 380.139L300.421 369.323L300.388 369.355L300.354 369.388L310.814 380.139ZM355.824 370.041L347.162 382.287L347.331 382.407L347.504 382.522L355.824 370.041ZM360.336 378.957H345.336L375.009 382.072L360.336 378.957ZM371.078 328.361L369.067 313.497L358.599 314.913L356.405 325.246L371.078 328.361ZM403.627 323.957L418.299 327.075L422.727 306.236L401.616 309.092L403.627 323.957ZM378.383 442.766L392.75 447.076L392.927 446.486L393.055 445.883L378.383 442.766ZM397.396 452.541L408.644 462.465L408.752 462.343L408.857 462.219L397.396 452.541ZM404.271 438.576V423.576H393.174L389.928 434.189L404.271 438.576ZM413.51 438.576L427.665 443.54L434.665 423.576H413.51V438.576ZM399.223 464.68L410.342 474.747L410.392 474.693L410.441 474.637L399.223 464.68ZM383.217 475.744L378.215 461.602L378.201 461.608L378.187 461.613L383.217 475.744ZM347.768 459.094L362.624 457.021L357.148 417.782L335.264 450.808L347.768 459.094ZM334.984 472.844L326.357 460.573L326.276 460.63L326.197 460.687L334.984 472.844ZM334.555 456.838L328.71 443.023L328.612 443.065L328.514 443.108L334.555 456.838ZM339.818 453.508L349.661 464.827L349.781 464.723L349.898 464.616L339.818 453.508ZM347.553 439.758L362.178 443.09L362.553 441.445V439.758H347.553ZM347.553 438.576L332.883 435.448L332.553 436.995V438.576H347.553ZM358.295 388.195L372.965 391.323L373.689 387.927L372.847 384.557L358.295 388.195ZM356.146 383.361L368.062 374.25L367.941 374.091L367.816 373.936L356.146 383.361ZM340.678 383.469L332.14 371.136L332.064 371.188L331.99 371.241L340.678 383.469ZM332.943 391.525L320.703 382.855L320.649 382.932L320.595 383.009L332.943 391.525ZM322.309 415.91L336.714 420.092L336.737 420.014L336.758 419.935L322.309 415.91ZM319.408 429.123L334.242 431.348L334.245 431.33L334.248 431.312L319.408 429.123ZM322.523 455.656L333.515 445.449L333.188 445.097L332.84 444.767L322.523 455.656ZM315.219 464.289C310.237 464.289 307.527 462.873 305.596 460.914L284.237 481.98C292.617 490.477 303.443 494.289 315.219 494.289V464.289ZM305.647 460.966C303.33 458.594 300.893 453.839 300.893 443.947H270.893C270.893 458.405 274.471 471.983 284.185 481.928L305.647 460.966ZM300.893 443.947C300.893 439.829 301.322 435.317 302.247 430.383L272.761 424.855C271.537 431.38 270.893 437.753 270.893 443.947H300.893ZM302.279 430.205C303.131 425.337 304.412 420.51 306.134 415.714L277.898 405.579C275.609 411.955 273.882 418.443 272.728 425.033L302.279 430.205ZM306.113 415.773C310.082 404.856 315.25 396.751 321.275 390.89L300.354 369.388C290.48 378.995 283.116 391.229 277.919 405.52L306.113 415.773ZM321.208 390.954C327.774 384.644 334.68 381.926 342.504 381.926V351.926C326.409 351.926 312.188 358.016 300.421 369.323L321.208 390.954ZM342.504 381.926C344.652 381.926 346.054 382.118 346.876 382.31C347.696 382.502 347.635 382.622 347.162 382.287L364.486 357.795C357.845 353.097 349.713 351.926 342.504 351.926V381.926ZM347.504 382.522C347.377 382.437 346.714 381.948 346.12 380.888C345.503 379.786 345.336 378.735 345.336 378.098H375.336C375.336 369.291 370.959 362.103 364.145 357.56L347.504 382.522ZM345.336 378.098V378.957H375.336V378.098H345.336ZM375.009 382.072L385.751 331.477L356.405 325.246L345.663 375.842L375.009 382.072ZM373.09 343.226L405.638 338.822L401.616 309.092L369.067 313.497L373.09 343.226ZM388.954 320.839L363.71 439.648L393.055 445.883L418.299 327.075L388.954 320.839ZM364.015 438.455C362.894 442.193 362.416 446.031 362.416 449.855H392.416C392.416 448.524 392.582 447.635 392.75 447.076L364.015 438.455ZM362.416 449.855C362.416 454.656 363.488 462.215 369.85 467.622L389.279 444.764C390.988 446.217 391.81 447.85 392.159 448.88C392.474 449.81 392.416 450.254 392.416 449.855H362.416ZM369.85 467.622C375.306 472.261 381.948 473.02 386.439 473.02V443.02C385.766 443.02 385.764 442.948 386.208 443.066C386.673 443.189 387.909 443.599 389.279 444.764L369.85 467.622ZM386.439 473.02C395.659 473.02 403.176 468.662 408.644 462.465L386.149 442.617C385.572 443.271 385.337 443.331 385.532 443.233C385.628 443.186 385.78 443.124 385.974 443.079C386.167 443.033 386.331 443.02 386.439 443.02V473.02ZM408.857 462.219C413.379 456.863 416.433 450.097 418.615 442.964L389.928 434.189C388.386 439.229 386.856 441.773 385.936 442.863L408.857 462.219ZM404.271 453.576H413.51V423.576H404.271V453.576ZM399.355 433.613C395.909 443.441 391.984 450.239 388.005 454.722L410.441 474.637C417.777 466.373 423.377 455.769 427.665 443.54L399.355 433.613ZM388.103 454.612C384.726 458.342 381.416 460.471 378.215 461.602L388.218 489.886C396.763 486.864 404.123 481.616 410.342 474.747L388.103 454.612ZM378.187 461.613C375.755 462.478 372.859 463 369.359 463V493C375.886 493 382.228 492.018 388.247 489.876L378.187 461.613ZM369.359 463C365.994 463 364.855 462.167 364.458 461.823L344.827 484.509C351.878 490.61 360.55 493 369.359 493V463ZM364.458 461.823C364.145 461.552 363.117 460.557 362.624 457.021L332.911 461.167C334.137 469.948 337.692 478.334 344.827 484.509L364.458 461.823ZM335.264 450.808C332.088 455.601 329.057 458.675 326.357 460.573L343.612 485.114C350.078 480.568 355.57 474.475 360.271 467.379L335.264 450.808ZM326.197 460.687C322.771 463.164 319.249 464.289 315.219 464.289V494.289C325.654 494.289 335.309 491.118 343.772 485L326.197 460.687ZM329.506 473.02C333.599 473.02 337.348 471.997 340.596 470.568L328.514 443.108C328.181 443.255 328.563 443.02 329.506 443.02V473.02ZM340.399 470.652C343.829 469.202 346.916 467.214 349.661 464.827L329.976 442.189C329.427 442.666 329.005 442.899 328.71 443.023L340.399 470.652ZM349.898 464.616C356.292 458.815 360.285 451.396 362.178 443.09L332.928 436.425C332.242 439.434 331.079 441.183 329.739 442.399L349.898 464.616ZM362.553 439.758V438.576H332.553V439.758H362.553ZM362.223 441.704L372.965 391.323L343.625 385.067L332.883 435.448L362.223 441.704ZM372.847 384.557C372.013 381.22 370.588 377.553 368.062 374.25L344.231 392.473C343.886 392.022 343.724 391.685 343.675 391.575C343.627 391.467 343.668 391.532 343.743 391.833L372.847 384.557ZM367.816 373.936C362.684 367.582 355.475 365.568 349.271 365.568V395.568C349.334 395.568 348.682 395.581 347.654 395.164C346.528 394.706 345.377 393.9 344.477 392.786L367.816 373.936ZM349.271 365.568C342.825 365.568 337.035 367.746 332.14 371.136L349.216 395.802C349.599 395.536 349.767 395.489 349.718 395.506C349.695 395.513 349.637 395.531 349.549 395.546C349.46 395.56 349.365 395.568 349.271 395.568V365.568ZM331.99 371.241C327.586 374.37 323.869 378.385 320.703 382.855L345.184 400.196C346.887 397.791 348.327 396.435 349.366 395.696L331.99 371.241ZM320.595 383.009C315.073 391.017 310.943 400.813 307.859 411.885L336.758 419.935C339.26 410.955 342.22 404.495 345.292 400.041L320.595 383.009ZM307.903 411.728C306.433 416.791 305.317 421.861 304.569 426.934L334.248 431.312C334.788 427.648 335.606 423.909 336.714 420.092L307.903 411.728ZM304.574 426.898C303.844 431.766 303.441 436.427 303.441 440.832H333.441C333.441 438.218 333.683 435.074 334.242 431.348L304.574 426.898ZM303.441 440.832C303.441 448.794 304.676 459.411 312.207 466.546L332.84 444.767C334.065 445.928 334.134 446.8 333.924 446.034C333.716 445.282 333.441 443.659 333.441 440.832H303.441ZM311.532 465.863C314.12 468.651 317.609 471.044 322.001 472.142L329.277 443.038C331.376 443.563 332.789 444.667 333.515 445.449L311.532 465.863ZM322.001 472.142C324.556 472.781 327.097 473.02 329.506 473.02V443.02C329.287 443.02 329.163 443.008 329.121 443.004C329.08 442.999 329.138 443.003 329.277 443.038L322.001 472.142ZM435.316 478.537L440.111 464.324L440.034 464.298L439.957 464.273L435.316 478.537ZM420.492 469.299L431.464 459.071L431.458 459.064L420.492 469.299ZM411.469 452.541L397.018 456.563L397.043 456.652L397.069 456.741L411.469 452.541ZM412.436 392.707L397.772 389.549L397.77 389.556L397.769 389.564L412.436 392.707ZM425.326 355.217L411.955 348.419L411.95 348.429L411.945 348.439L425.326 355.217ZM449.066 325.246L458.212 337.135L458.22 337.129L449.066 325.246ZM511.479 319.875L502.786 332.099L502.802 332.111L502.819 332.123L511.479 319.875ZM518.676 356.936L530.943 365.568L531.01 365.473L531.075 365.377L518.676 356.936ZM500.092 361.555L494.772 375.58L494.85 375.609L494.928 375.638L500.092 361.555ZM494.184 357.043L487.475 343.627L470.481 352.124L482.691 366.682L494.184 357.043ZM497.943 354.035L509.122 364.037L509.249 363.895L509.372 363.75L497.943 354.035ZM501.273 327.395L489.948 337.23L489.966 337.251L489.985 337.272L501.273 327.395ZM479.145 327.717L488.181 339.69L488.198 339.677L488.215 339.663L479.145 327.717ZM468.188 339.963L455.681 331.681L455.68 331.683L468.188 339.963ZM458.842 357.795L472.666 363.616L458.842 357.795ZM451.537 379.494L437.026 375.697L437.021 375.713L437.017 375.73L451.537 379.494ZM446.273 440.402L431.545 443.245L431.569 443.369L431.595 443.493L446.273 440.402ZM450.355 450.822L462.987 442.732L462.96 442.69L462.932 442.647L450.355 450.822ZM495.473 454.689L502.336 468.027L502.387 468.001L502.438 467.974L495.473 454.689ZM514.379 438.361L520.498 424.666L509.527 419.764L502.35 429.401L514.379 438.361ZM519.428 440.617L533.365 446.164L538.686 432.793L525.547 426.922L519.428 440.617ZM507.826 459.094L496.855 448.864L496.85 448.87L507.826 459.094ZM491.283 472.092L498.582 485.196L498.594 485.19L491.283 472.092ZM456.693 466.545C449.52 466.545 444.101 465.67 440.111 464.324L430.522 492.75C438.419 495.414 447.252 496.545 456.693 496.545V466.545ZM439.957 464.273C436.227 463.06 433.528 461.285 431.464 459.071L409.52 479.527C415.334 485.764 422.518 490.147 430.676 492.801L439.957 464.273ZM431.458 459.064C429.361 456.817 427.358 453.448 425.869 448.341L397.069 456.741C399.59 465.384 403.603 473.187 409.526 479.534L431.458 459.064ZM425.919 448.519C424.455 443.256 423.568 436.309 423.568 427.404H393.568C393.568 438.122 394.616 447.932 397.018 456.563L425.919 448.519ZM423.568 427.404C423.568 417.467 424.722 406.958 427.103 395.85L397.769 389.564C394.993 402.518 393.568 415.141 393.568 427.404H423.568ZM427.099 395.865C429.877 382.967 433.784 371.715 438.708 361.994L411.945 348.439C405.696 360.776 401.009 374.518 397.772 389.549L427.099 395.865ZM438.697 362.014C444.425 350.748 451.024 342.665 458.212 337.135L439.921 313.357C428.489 322.15 419.261 334.047 411.955 348.419L438.697 362.014ZM458.22 337.129C466.147 331.023 475.019 328 485.375 328V298C468.518 298 453.183 303.141 439.913 313.363L458.22 337.129ZM485.375 328C494.386 328 499.69 329.898 502.786 332.099L520.171 307.651C510.377 300.686 498.279 298 485.375 298V328ZM502.819 332.123C505.274 333.859 507.113 336.411 507.113 342.434H537.113C537.113 328.404 531.863 315.917 520.138 307.627L502.819 332.123ZM507.113 342.434C507.113 344.715 506.902 346.298 506.658 347.326C506.418 348.342 506.194 348.616 506.277 348.494L531.075 365.377C535.756 358.502 537.113 350.215 537.113 342.434H507.113ZM506.409 348.303C506.393 348.326 506.451 348.24 506.601 348.11C506.756 347.977 506.936 347.86 507.112 347.775C507.284 347.692 507.373 347.678 507.327 347.687C507.273 347.698 507.06 347.736 506.645 347.736V377.736C516.141 377.736 525.04 373.956 530.943 365.568L506.409 348.303ZM506.645 347.736C506.24 347.736 505.802 347.672 505.256 347.472L494.928 375.638C498.679 377.013 502.609 377.736 506.645 377.736V347.736ZM505.412 347.53C505.876 347.706 506.124 347.886 506.161 347.914C506.187 347.934 506.014 347.806 505.676 347.404L482.691 366.682C485.714 370.286 489.675 373.646 494.772 375.58L505.412 347.53ZM500.892 370.459C504.258 368.776 506.966 366.447 509.122 364.037L486.765 344.033C486.486 344.345 486.687 344.021 487.475 343.627L500.892 370.459ZM509.372 363.75C511.449 361.307 513.169 358.628 514.582 355.802L487.75 342.386C487.301 343.283 486.872 343.899 486.514 344.32L509.372 363.75ZM514.582 355.802C517.556 349.854 519.281 343.453 519.281 336.74H489.281C489.281 338.191 488.929 340.026 487.75 342.386L514.582 355.802ZM519.281 336.74C519.281 330.26 517.592 323.266 512.562 317.517L489.985 337.272C489.779 337.037 489.611 336.793 489.481 336.56C489.353 336.329 489.284 336.148 489.251 336.045C489.188 335.851 489.281 336.024 489.281 336.74H519.281ZM512.599 317.559C506.649 310.708 498.513 308.312 490.854 308.312V338.312C491.687 338.312 491.78 338.439 491.425 338.3C491.241 338.228 490.983 338.102 490.696 337.901C490.407 337.698 490.153 337.466 489.948 337.23L512.599 317.559ZM490.854 308.312C482.937 308.312 475.93 311.324 470.074 315.77L488.215 339.663C489.178 338.932 489.861 338.601 490.253 338.453C490.616 338.317 490.792 338.312 490.854 338.312V308.312ZM470.108 315.744C464.584 319.913 459.833 325.411 455.681 331.681L480.694 348.244C483.561 343.916 486.114 341.25 488.181 339.69L470.108 315.744ZM455.68 331.683C451.706 337.687 448.171 344.484 445.017 351.974L472.666 363.616C475.242 357.499 477.938 352.408 480.695 348.243L455.68 331.683ZM445.017 351.974C441.857 359.48 439.199 367.394 437.026 375.697L466.048 383.292C467.886 376.269 470.098 369.716 472.666 363.616L445.017 351.974ZM437.017 375.73C434.87 384.013 433.185 392.439 431.961 401.006L461.66 405.248C462.728 397.773 464.194 390.444 466.057 383.259L437.017 375.73ZM431.961 401.006C430.726 409.654 430.092 418.029 430.092 426.115H460.092C460.092 419.592 460.604 412.641 461.66 405.248L431.961 401.006ZM430.092 426.115C430.092 432.237 430.531 437.99 431.545 443.245L461.002 437.56C460.44 434.65 460.092 430.878 460.092 426.115H430.092ZM431.595 443.493C432.754 448.997 434.713 454.281 437.779 458.997L462.932 442.647C462.274 441.635 461.512 439.972 460.952 437.312L431.595 443.493ZM437.724 458.912C445.435 470.952 458.236 475.383 471.518 475.383V445.383C464.747 445.383 463.44 443.44 462.987 442.732L437.724 458.912ZM471.518 475.383C482.41 475.383 492.759 472.955 502.336 468.027L488.609 441.352C483.434 444.015 477.813 445.383 471.518 445.383V475.383ZM502.438 467.974C511.906 463.01 519.908 456.049 526.408 447.322L502.35 429.401C498.395 434.71 493.792 438.634 488.508 441.405L502.438 467.974ZM508.26 452.056L513.309 454.312L525.547 426.922L520.498 424.666L508.26 452.056ZM505.491 435.071C503.357 440.432 500.472 444.986 496.855 448.864L518.797 469.323C525.063 462.603 529.912 454.839 533.365 446.164L505.491 435.071ZM496.85 448.87C493.031 452.97 488.75 456.328 483.973 458.994L498.594 485.19C506.134 480.981 512.882 475.674 518.802 469.318L496.85 448.87ZM483.984 458.987C479.384 461.55 474.718 463.428 469.973 464.671L477.574 493.692C484.86 491.784 491.868 488.936 498.582 485.196L483.984 458.987ZM469.973 464.671C465.008 465.972 460.599 466.545 456.693 466.545V496.545C463.53 496.545 470.508 495.543 477.574 493.692L469.973 464.671ZM520.609 470.91L530.592 459.714L530.561 459.686L530.53 459.659L520.609 470.91ZM512.016 429.23L526.801 431.76L526.804 431.744L526.806 431.728L512.016 429.23ZM516.312 412.58L530.487 417.487L530.516 417.405L530.543 417.324L516.312 412.58ZM535.326 380.676L545.743 391.468L545.78 391.433L545.816 391.397L535.326 380.676ZM599.135 401.408H584.135V412.22L594.391 415.638L599.135 401.408ZM618.793 397.541L624.467 411.427L624.502 411.412L624.538 411.397L618.793 397.541ZM635.443 388.41L649.724 383.82L643.507 364.479L626.853 376.114L635.443 388.41ZM637.377 394.426L648.239 404.771L654.384 398.318L651.657 389.836L637.377 394.426ZM620.727 405.92L614.423 392.309L614.395 392.322L614.367 392.335L620.727 405.92ZM598.383 412.688L595.917 397.892L584.439 399.805L583.438 411.397L598.383 412.688ZM592.582 439.973L606.657 445.158L606.664 445.138L606.672 445.118L592.582 439.973ZM580.98 461.027L592.622 470.486L592.644 470.459L592.666 470.432L580.98 461.027ZM562.504 455.656L572.316 467.002L572.328 466.992L572.339 466.982L562.504 455.656ZM580.121 413.332L594.987 415.336L596.752 402.243L583.986 398.839L580.121 413.332ZM575.502 410.109L562.334 417.292L562.457 417.518L562.588 417.74L575.502 410.109ZM581.088 392.17L587.052 405.933L596.706 401.75L596.06 391.249L581.088 392.17ZM578.832 382.18L591.654 374.395L591.554 374.23L591.45 374.068L578.832 382.18ZM576.361 380.031L570.075 393.651L570.263 393.737L570.453 393.818L576.361 380.031ZM558.207 390.559L570.79 398.724L570.831 398.66L570.872 398.596L558.207 390.559ZM547.465 415.48L533.03 411.401L533.028 411.409L533.026 411.416L547.465 415.48ZM543.92 450.178L529.1 452.493L529.135 452.718L529.177 452.942L543.92 450.178ZM545.961 455.549L558.442 447.228L558.286 446.994L558.121 446.766L545.961 455.549ZM549.291 458.342L543.47 472.166L543.785 472.299L544.105 472.417L549.291 458.342ZM545.854 463.859C537.29 463.859 532.919 461.789 530.592 459.714L510.627 482.106C520.188 490.631 532.647 493.859 545.854 493.859V463.859ZM530.53 459.659C528.114 457.529 525.619 453.385 525.619 444.162H495.619C495.619 458.858 499.784 472.546 510.689 482.161L530.53 459.659ZM525.619 444.162C525.619 440.661 525.982 436.544 526.801 431.76L497.23 426.701C496.187 432.802 495.619 438.64 495.619 444.162H525.619ZM526.806 431.728C527.591 427.077 528.81 422.332 530.487 417.487L502.138 407.673C499.948 414 498.302 420.355 497.225 426.733L526.806 431.728ZM530.543 417.324C534.389 405.785 539.599 397.399 545.743 391.468L524.909 369.883C514.582 379.851 507.116 392.735 502.082 407.837L530.543 417.324ZM545.816 391.397C553.008 384.361 561.11 381.066 570.883 381.066V351.066C553.155 351.066 537.553 357.511 524.836 369.954L545.816 391.397ZM570.883 381.066C577.017 381.066 579.227 382.812 580.383 384.249C582.041 386.31 584.135 391.101 584.135 401.193H614.135C614.135 387.868 611.52 375.095 603.76 365.447C595.499 355.175 583.583 351.066 570.883 351.066V381.066ZM584.135 401.193V401.408H614.135V401.193H584.135ZM594.391 415.638C595.57 416.031 597.654 416.623 600.209 416.623V386.623C601.279 386.623 602.128 386.753 602.667 386.861C603.222 386.972 603.637 387.097 603.878 387.178L594.391 415.638ZM600.209 416.623H601.498V386.623H600.209V416.623ZM601.498 416.623C609.01 416.623 616.788 414.564 624.467 411.427L613.119 383.655C607.478 385.961 603.726 386.623 601.498 386.623V416.623ZM624.538 411.397C631.416 408.545 637.92 404.978 644.034 400.707L626.853 376.114C622.511 379.147 617.915 381.667 613.048 383.685L624.538 411.397ZM621.163 393L623.096 399.016L651.657 389.836L649.724 383.82L621.163 393ZM626.515 384.081C623.754 386.98 619.854 389.793 614.423 392.309L627.031 419.531C635.206 415.745 642.406 410.895 648.239 404.771L626.515 384.081ZM614.367 392.335C609.003 394.845 602.885 396.73 595.917 397.892L600.849 427.483C610.209 425.923 618.986 423.297 627.086 419.505L614.367 392.335ZM583.438 411.397C582.677 420.214 580.989 427.992 578.492 434.827L606.672 445.118C610.191 435.482 612.37 425.07 613.327 413.978L583.438 411.397ZM578.507 434.787C575.977 441.655 572.858 447.196 569.295 451.622L592.666 470.432C598.556 463.114 603.172 454.618 606.657 445.158L578.507 434.787ZM569.339 451.568C565.876 455.831 562.134 458.843 558.14 460.888L571.81 487.592C579.846 483.479 586.775 477.682 592.622 470.486L569.339 451.568ZM558.14 460.888C554.231 462.889 550.199 463.859 545.854 463.859V493.859C554.972 493.859 563.687 491.75 571.81 487.592L558.14 460.888ZM554.662 474.094C561.959 474.094 567.923 470.801 572.316 467.002L552.692 444.311C552.255 444.688 552.194 444.646 552.534 444.496C552.921 444.327 553.666 444.094 554.662 444.094V474.094ZM572.339 466.982C576.682 463.21 580.223 458.475 583.168 453.299L557.093 438.463C555.312 441.594 553.768 443.376 552.669 444.331L572.339 466.982ZM583.168 453.299C586.177 448.01 588.618 442.093 590.591 435.683L561.917 426.86C560.452 431.622 558.811 435.444 557.093 438.463L583.168 453.299ZM590.591 435.683C592.574 429.237 594.028 422.445 594.987 415.336L565.256 411.328C564.495 416.966 563.371 422.135 561.917 426.86L590.591 435.683ZM583.986 398.839C584.296 398.921 585.038 399.167 585.938 399.795C586.882 400.454 587.76 401.368 588.416 402.478L562.588 417.74C565.934 423.403 571.177 426.471 576.256 427.826L583.986 398.839ZM588.67 402.927C589.022 403.572 589.157 404.069 589.202 404.281C589.245 404.482 589.213 404.445 589.213 404.094H559.213C559.213 408.182 559.92 412.867 562.334 417.292L588.67 402.927ZM589.213 404.094C589.213 403.591 589.265 403.42 589.246 403.498C589.223 403.593 589.127 403.921 588.861 404.359L563.217 388.79C560.225 393.717 559.213 399.103 559.213 404.094H589.213ZM588.861 404.359C588.71 404.608 588.453 404.943 588.075 405.273C587.697 405.603 587.326 405.814 587.052 405.933L575.124 378.407C570.12 380.575 566.043 384.135 563.217 388.79L588.861 404.359ZM596.06 391.249C595.744 386.115 594.86 379.676 591.654 374.395L566.01 389.964C565.724 389.493 565.605 389.178 565.586 389.126C565.565 389.068 565.607 389.172 565.677 389.485C565.826 390.141 566.006 391.297 566.116 393.091L596.06 391.249ZM591.45 374.068C589.343 370.79 586.281 367.963 582.27 366.244L570.453 393.818C568.447 392.959 567.032 391.564 566.214 390.291L591.45 374.068ZM582.647 366.412C579.047 364.75 575.453 364.387 572.709 364.387V394.387C572.767 394.387 572.556 394.392 572.143 394.32C571.732 394.247 570.993 394.074 570.075 393.651L582.647 366.412ZM572.709 364.387C559.627 364.387 550.885 374.102 545.542 382.521L570.872 398.596C572.679 395.748 573.969 394.496 574.532 394.062C574.955 393.736 574.266 394.387 572.709 394.387V364.387ZM545.624 382.393C540.245 390.682 536.124 400.454 533.03 411.401L561.899 419.56C564.392 410.741 567.432 403.899 570.79 398.724L545.624 382.393ZM533.026 411.416C530.049 421.994 528.383 431.996 528.383 441.262H558.383C558.383 435.488 559.438 428.303 561.904 419.545L533.026 411.416ZM528.383 441.262C528.383 445.303 528.574 449.131 529.1 452.493L558.74 447.862C558.549 446.642 558.383 444.525 558.383 441.262H528.383ZM529.177 452.942C529.839 456.474 531.117 460.615 533.801 464.331L558.121 446.766C558.563 447.378 558.74 447.82 558.774 447.911C558.809 448.003 558.748 447.866 558.663 447.413L529.177 452.942ZM533.48 463.869C535.887 467.479 539.26 470.394 543.47 472.166L555.112 444.517C555.787 444.802 556.461 445.204 557.077 445.721C557.689 446.234 558.135 446.768 558.442 447.228L533.48 463.869ZM544.105 472.417C547.765 473.765 551.512 474.094 554.662 474.094V444.094C554.387 444.094 554.173 444.086 554.013 444.076C553.853 444.066 553.763 444.055 553.734 444.051C553.704 444.047 553.755 444.052 553.874 444.08C553.992 444.109 554.199 444.165 554.477 444.267L544.105 472.417ZM616.537 471.447L605.806 481.928L605.832 481.954L605.858 481.98L616.537 471.447ZM609.125 427.619L623.868 430.383L623.885 430.294L623.9 430.205L609.125 427.619ZM613.637 410.646L599.54 405.52L599.529 405.549L599.519 405.579L613.637 410.646ZM632.436 380.139L622.042 369.323L622.009 369.355L621.975 369.388L632.436 380.139ZM677.445 370.041L668.783 382.287L668.952 382.407L669.125 382.522L677.445 370.041ZM681.957 378.957H666.957L696.63 382.072L681.957 378.957ZM692.699 328.361L690.688 313.497L680.22 314.913L678.026 325.246L692.699 328.361ZM725.248 323.957L739.92 327.075L744.348 306.236L723.237 309.092L725.248 323.957ZM700.004 442.766L714.371 447.076L714.548 446.486L714.676 445.883L700.004 442.766ZM719.018 452.541L730.265 462.465L730.373 462.343L730.478 462.219L719.018 452.541ZM725.893 438.576V423.576H714.795L711.549 434.189L725.893 438.576ZM735.131 438.576L749.286 443.54L756.286 423.576H735.131V438.576ZM720.844 464.68L731.963 474.747L732.013 474.693L732.062 474.637L720.844 464.68ZM704.838 475.744L699.837 461.602L699.822 461.608L699.808 461.613L704.838 475.744ZM669.389 459.094L684.245 457.021L678.77 417.782L656.885 450.808L669.389 459.094ZM656.605 472.844L647.978 460.573L647.897 460.63L647.818 460.687L656.605 472.844ZM656.176 456.838L650.331 443.023L650.233 443.065L650.135 443.108L656.176 456.838ZM661.439 453.508L671.282 464.827L671.402 464.723L671.519 464.616L661.439 453.508ZM669.174 439.758L683.799 443.09L684.174 441.445V439.758H669.174ZM669.174 438.576L654.504 435.448L654.174 436.995V438.576H669.174ZM679.916 388.195L694.586 391.323L695.31 387.927L694.468 384.557L679.916 388.195ZM677.768 383.361L689.683 374.25L689.562 374.091L689.437 373.936L677.768 383.361ZM662.299 383.469L653.761 371.136L653.685 371.188L653.611 371.241L662.299 383.469ZM654.564 391.525L642.324 382.855L642.27 382.932L642.216 383.009L654.564 391.525ZM643.93 415.91L658.335 420.092L658.358 420.014L658.38 419.935L643.93 415.91ZM641.029 429.123L655.863 431.348L655.866 431.33L655.869 431.312L641.029 429.123ZM644.145 455.656L655.136 445.449L654.81 445.097L654.461 444.767L644.145 455.656ZM636.84 464.289C631.858 464.289 629.148 462.873 627.217 460.914L605.858 481.98C614.238 490.477 625.064 494.289 636.84 494.289V464.289ZM627.268 460.966C624.951 458.594 622.514 453.839 622.514 443.947H592.514C592.514 458.405 596.092 471.983 605.806 481.928L627.268 460.966ZM622.514 443.947C622.514 439.829 622.943 435.317 623.868 430.383L594.382 424.855C593.159 431.38 592.514 437.753 592.514 443.947H622.514ZM623.9 430.205C624.752 425.337 626.033 420.51 627.755 415.714L599.519 405.579C597.23 411.955 595.503 418.443 594.35 425.033L623.9 430.205ZM627.734 415.773C631.703 404.856 636.871 396.751 642.896 390.89L621.975 369.388C612.102 378.995 604.737 391.229 599.54 405.52L627.734 415.773ZM642.829 390.954C649.396 384.644 656.301 381.926 664.125 381.926V351.926C648.03 351.926 633.809 358.016 622.042 369.323L642.829 390.954ZM664.125 381.926C666.273 381.926 667.675 382.118 668.497 382.31C669.318 382.502 669.257 382.622 668.783 382.287L686.107 357.795C679.466 353.097 671.334 351.926 664.125 351.926V381.926ZM669.125 382.522C668.998 382.437 668.335 381.948 667.742 380.888C667.124 379.786 666.957 378.735 666.957 378.098H696.957C696.957 369.291 692.58 362.103 685.766 357.56L669.125 382.522ZM666.957 378.098V378.957H696.957V378.098H666.957ZM696.63 382.072L707.372 331.477L678.026 325.246L667.284 375.842L696.63 382.072ZM694.711 343.226L727.259 338.822L723.237 309.092L690.688 313.497L694.711 343.226ZM710.576 320.839L685.331 439.648L714.676 445.883L739.92 327.075L710.576 320.839ZM685.637 438.455C684.515 442.193 684.037 446.031 684.037 449.855H714.037C714.037 448.524 714.203 447.635 714.371 447.076L685.637 438.455ZM684.037 449.855C684.037 454.656 685.109 462.215 691.471 467.622L710.9 444.764C712.609 446.217 713.431 447.85 713.78 448.88C714.095 449.81 714.037 450.254 714.037 449.855H684.037ZM691.471 467.622C696.927 472.261 703.569 473.02 708.061 473.02V443.02C707.387 443.02 707.385 442.948 707.829 443.066C708.294 443.189 709.53 443.599 710.9 444.764L691.471 467.622ZM708.061 473.02C717.28 473.02 724.797 468.662 730.265 462.465L707.77 442.617C707.193 443.271 706.958 443.331 707.153 443.233C707.249 443.186 707.401 443.124 707.595 443.079C707.788 443.033 707.952 443.02 708.061 443.02V473.02ZM730.478 462.219C735 456.863 738.054 450.097 740.237 442.964L711.549 434.189C710.007 439.229 708.477 441.773 707.557 442.863L730.478 462.219ZM725.893 453.576H735.131V423.576H725.893V453.576ZM720.976 433.613C717.53 443.441 713.605 450.239 709.626 454.722L732.062 474.637C739.398 466.373 744.998 455.769 749.286 443.54L720.976 433.613ZM709.724 454.612C706.347 458.342 703.037 460.471 699.837 461.602L709.839 489.886C718.384 486.864 725.744 481.616 731.963 474.747L709.724 454.612ZM699.808 461.613C697.376 462.478 694.48 463 690.98 463V493C697.507 493 703.849 492.018 709.868 489.876L699.808 461.613ZM690.98 463C687.615 463 686.476 462.167 686.079 461.823L666.448 484.509C673.499 490.61 682.171 493 690.98 493V463ZM686.079 461.823C685.766 461.552 684.738 460.557 684.245 457.021L654.533 461.167C655.758 469.948 659.314 478.334 666.448 484.509L686.079 461.823ZM656.885 450.808C653.709 455.601 650.678 458.675 647.978 460.573L665.233 485.114C671.7 480.568 677.191 474.475 681.893 467.379L656.885 450.808ZM647.818 460.687C644.392 463.164 640.87 464.289 636.84 464.289V494.289C647.276 494.289 656.93 491.118 665.393 485L647.818 460.687ZM651.127 473.02C655.22 473.02 658.969 471.997 662.217 470.568L650.135 443.108C649.802 443.255 650.185 443.02 651.127 443.02V473.02ZM662.02 470.652C665.45 469.202 668.537 467.214 671.282 464.827L651.597 442.189C651.048 442.666 650.626 442.899 650.331 443.023L662.02 470.652ZM671.519 464.616C677.913 458.815 681.906 451.396 683.799 443.09L654.549 436.425C653.863 439.434 652.7 441.183 651.36 442.399L671.519 464.616ZM684.174 439.758V438.576H654.174V439.758H684.174ZM683.844 441.704L694.586 391.323L665.246 385.067L654.504 435.448L683.844 441.704ZM694.468 384.557C693.634 381.22 692.209 377.553 689.683 374.25L665.852 392.473C665.507 392.022 665.345 391.685 665.296 391.575C665.248 391.467 665.289 391.532 665.364 391.833L694.468 384.557ZM689.437 373.936C684.305 367.582 677.096 365.568 670.893 365.568V395.568C670.955 395.568 670.303 395.581 669.275 395.164C668.149 394.706 666.998 393.9 666.098 392.786L689.437 373.936ZM670.893 365.568C664.447 365.568 658.657 367.746 653.761 371.136L670.837 395.802C671.22 395.536 671.388 395.489 671.339 395.506C671.316 395.513 671.258 395.531 671.17 395.546C671.081 395.56 670.986 395.568 670.893 395.568V365.568ZM653.611 371.241C649.207 374.37 645.49 378.385 642.324 382.855L666.805 400.196C668.508 397.791 669.948 396.435 670.987 395.696L653.611 371.241ZM642.216 383.009C636.694 391.017 632.564 400.813 629.48 411.885L658.38 419.935C660.881 410.955 663.841 404.495 666.913 400.041L642.216 383.009ZM629.524 411.728C628.055 416.791 626.938 421.861 626.19 426.934L655.869 431.312C656.409 427.648 657.227 423.909 658.335 420.092L629.524 411.728ZM626.195 426.898C625.465 431.766 625.062 436.427 625.062 440.832H655.062C655.062 438.218 655.304 435.074 655.863 431.348L626.195 426.898ZM625.062 440.832C625.062 448.794 626.297 459.411 633.828 466.546L654.461 444.767C655.687 445.928 655.755 446.8 655.545 446.034C655.337 445.282 655.062 443.659 655.062 440.832H625.062ZM633.153 465.863C635.741 468.651 639.23 471.044 643.622 472.142L650.898 443.038C652.997 443.563 654.41 444.667 655.136 445.449L633.153 465.863ZM643.622 472.142C646.178 472.781 648.718 473.02 651.127 473.02V443.02C650.908 443.02 650.784 443.008 650.742 443.004C650.701 442.999 650.759 443.003 650.898 443.038L643.622 472.142ZM732.123 471.447L721.392 481.928L721.418 481.954L721.444 481.98L732.123 471.447ZM724.711 427.619L739.454 430.383L739.471 430.294L739.486 430.205L724.711 427.619ZM729.223 410.646L715.126 405.52L715.115 405.549L715.105 405.579L729.223 410.646ZM748.021 380.139L737.628 369.323L737.595 369.355L737.561 369.388L748.021 380.139ZM793.031 370.041L784.369 382.287L784.538 382.407L784.711 382.522L793.031 370.041ZM797.543 379.709H782.543L812.246 382.677L797.543 379.709ZM799.906 368V353H787.631L785.203 365.032L799.906 368ZM831.596 368L846.272 371.1L850.095 353H831.596V368ZM815.805 442.766L830.172 447.076L830.352 446.477L830.481 445.865L815.805 442.766ZM834.818 453.186L823.177 443.727L823.161 443.746L823.145 443.765L834.818 453.186ZM841.693 438.576V423.576H830.361L827.264 434.477L841.693 438.576ZM850.932 438.576L865.078 443.564L872.125 423.576H850.932V438.576ZM836.645 465.109L847.905 475.019L847.97 474.945L848.033 474.871L836.645 465.109ZM820.639 476.711L826.131 490.669L826.156 490.66L826.181 490.65L820.639 476.711ZM791.85 474.24L781.569 485.163L781.679 485.267L781.792 485.368L791.85 474.24ZM785.189 459.094L800.086 457.332L795.498 418.544L772.943 450.432L785.189 459.094ZM772.084 472.844L763.329 460.664L763.278 460.701L763.226 460.738L772.084 472.844ZM771.869 456.73L765.583 443.111L765.48 443.159L765.378 443.208L771.869 456.73ZM777.24 453.078L787.376 464.135L787.512 464.011L787.645 463.883L777.24 453.078ZM784.975 438.576L799.634 441.755L799.641 441.722L799.648 441.689L784.975 438.576ZM795.502 388.947L810.175 392.06L810.502 390.521V388.947H795.502ZM794.965 386.477L780.542 390.597L780.725 391.239L780.965 391.861L794.965 386.477ZM793.676 383.684L806.157 375.363L805.726 374.718L805.232 374.12L793.676 383.684ZM777.885 383.469L769.347 371.136L769.271 371.188L769.197 371.241L777.885 383.469ZM770.15 391.525L757.91 382.855L757.856 382.932L757.802 383.009L770.15 391.525ZM759.516 415.91L773.921 420.092L773.944 420.014L773.965 419.935L759.516 415.91ZM756.615 429.123L771.449 431.348L771.452 431.33L771.455 431.312L756.615 429.123ZM759.73 455.656L770.722 445.449L770.395 445.097L770.047 444.767L759.73 455.656ZM752.426 464.289C747.444 464.289 744.734 462.873 742.803 460.914L721.444 481.98C729.824 490.477 740.65 494.289 752.426 494.289V464.289ZM742.854 460.966C740.537 458.594 738.1 453.839 738.1 443.947H708.1C708.1 458.405 711.678 471.983 721.392 481.928L742.854 460.966ZM738.1 443.947C738.1 439.829 738.529 435.317 739.454 430.383L709.968 424.855C708.744 431.38 708.1 437.753 708.1 443.947H738.1ZM739.486 430.205C740.338 425.337 741.619 420.51 743.341 415.714L715.105 405.579C712.816 411.955 711.089 418.443 709.935 425.033L739.486 430.205ZM743.32 415.773C747.289 404.856 752.457 396.751 758.482 390.89L737.561 369.388C727.687 378.995 720.323 391.229 715.126 405.52L743.32 415.773ZM758.415 390.954C764.981 384.644 771.887 381.926 779.711 381.926V351.926C763.616 351.926 749.395 358.016 737.628 369.323L758.415 390.954ZM779.711 381.926C781.859 381.926 783.261 382.118 784.083 382.31C784.904 382.502 784.842 382.622 784.369 382.287L801.693 357.795C795.052 353.097 786.92 351.926 779.711 351.926V381.926ZM784.711 382.522C784.584 382.437 783.921 381.948 783.327 380.888C782.71 379.786 782.543 378.735 782.543 378.098H812.543C812.543 369.291 808.166 362.103 801.352 357.56L784.711 382.522ZM782.543 378.098V379.709H812.543V378.098H782.543ZM812.246 382.677L814.61 370.968L785.203 365.032L782.839 376.741L812.246 382.677ZM799.906 383H831.596V353H799.906V383ZM816.919 364.9L801.128 439.666L830.481 445.865L846.272 371.1L816.919 364.9ZM801.437 438.455C800.316 442.193 799.838 446.031 799.838 449.855H829.838C829.838 448.524 830.004 447.635 830.172 447.076L801.437 438.455ZM799.838 449.855C799.838 455.149 801.09 461.903 806.243 467.302C811.522 472.832 818.359 474.309 823.861 474.309V444.309C823.348 444.309 825.674 444.21 827.944 446.588C830.09 448.836 829.838 450.864 829.838 449.855H799.838ZM823.861 474.309C833.723 474.309 841.295 469.045 846.491 462.606L823.145 443.765C822.408 444.679 822.079 444.802 822.291 444.684C822.407 444.619 822.628 444.515 822.941 444.431C823.257 444.347 823.576 444.309 823.861 444.309V474.309ZM846.46 462.644C850.998 457.059 854.019 450.079 856.122 442.675L827.264 434.477C825.787 439.677 824.225 442.437 823.177 443.727L846.46 462.644ZM841.693 453.576H850.932V423.576H841.693V453.576ZM836.785 433.589C833.245 443.631 829.272 450.662 825.256 455.348L848.033 474.871C855.189 466.523 860.741 455.865 865.078 443.564L836.785 433.589ZM825.384 455.2C822.032 459.009 818.594 461.382 815.097 462.772L826.181 490.65C834.571 487.314 841.804 481.952 847.905 475.019L825.384 455.2ZM815.147 462.752C812.593 463.757 809.843 464.289 806.781 464.289V494.289C813.459 494.289 819.948 493.102 826.131 490.669L815.147 462.752ZM806.781 464.289C803.333 464.289 802.252 463.423 801.908 463.112L781.792 485.368C788.895 491.789 797.769 494.289 806.781 494.289V464.289ZM802.13 463.317C801.799 463.006 800.6 461.679 800.086 457.332L770.293 460.856C771.355 469.829 774.596 478.6 781.569 485.163L802.13 463.317ZM772.943 450.432C769.499 455.301 766.249 458.565 763.329 460.664L780.839 485.024C787.085 480.534 792.572 474.632 797.436 467.756L772.943 450.432ZM763.226 460.738C759.908 463.167 756.453 464.289 752.426 464.289V494.289C762.864 494.289 772.516 491.115 780.942 484.949L763.226 460.738ZM766.713 473.02C771.022 473.02 774.955 471.888 778.36 470.253L765.378 443.208C765.203 443.292 765.698 443.02 766.713 443.02V473.02ZM778.155 470.35C781.603 468.759 784.668 466.618 787.376 464.135L767.104 442.021C766.375 442.69 765.859 442.984 765.583 443.111L778.155 470.35ZM787.645 463.883C793.932 457.829 797.801 450.208 799.634 441.755L770.315 435.397C769.57 438.833 768.283 440.879 766.836 442.273L787.645 463.883ZM799.648 441.689L810.175 392.06L780.828 385.835L770.301 435.464L799.648 441.689ZM810.502 388.947C810.502 385.821 809.743 383.115 808.965 381.092L780.965 391.861C780.903 391.7 780.502 390.641 780.502 388.947H810.502ZM809.388 382.356C808.679 379.876 807.598 377.526 806.157 375.363L781.195 392.004C780.899 391.56 780.678 391.072 780.542 390.597L809.388 382.356ZM805.232 374.12C800.238 368.086 793.314 365.568 786.479 365.568V395.568C786.328 395.568 785.615 395.54 784.629 395.113C783.588 394.663 782.72 393.972 782.12 393.247L805.232 374.12ZM786.479 365.568C780.032 365.568 774.242 367.746 769.347 371.136L786.423 395.802C786.806 395.536 786.974 395.489 786.925 395.506C786.902 395.513 786.844 395.531 786.756 395.546C786.667 395.56 786.572 395.568 786.479 395.568V365.568ZM769.197 371.241C764.793 374.37 761.076 378.385 757.91 382.855L782.391 400.196C784.094 397.791 785.534 396.435 786.573 395.696L769.197 371.241ZM757.802 383.009C752.28 391.017 748.15 400.813 745.066 411.885L773.965 419.935C776.467 410.955 779.427 404.495 782.499 400.041L757.802 383.009ZM745.11 411.728C743.64 416.791 742.524 421.861 741.776 426.934L771.455 431.312C771.995 427.648 772.813 423.909 773.921 420.092L745.11 411.728ZM741.781 426.898C741.051 431.766 740.648 436.427 740.648 440.832H770.648C770.648 438.218 770.89 435.074 771.449 431.348L741.781 426.898ZM740.648 440.832C740.648 448.794 741.883 459.411 749.414 466.546L770.047 444.767C771.272 445.928 771.341 446.8 771.131 446.034C770.923 445.282 770.648 443.659 770.648 440.832H740.648ZM748.739 465.863C751.327 468.651 754.816 471.044 759.208 472.142L766.484 443.038C768.583 443.563 769.996 444.667 770.722 445.449L748.739 465.863ZM759.208 472.142C761.763 472.781 764.304 473.02 766.713 473.02V443.02C766.494 443.02 766.37 443.008 766.328 443.004C766.287 442.999 766.345 443.003 766.484 443.038L759.208 472.142ZM856.732 368V353H844.578L842.058 364.89L856.732 368ZM888.422 368L903.117 371.008L906.804 353H888.422V368ZM885.629 381.643L870.934 378.634L861.916 422.683L895.574 392.871L885.629 381.643ZM897.875 372.189L890.412 359.178L890.328 359.226L890.244 359.276L897.875 372.189ZM923.549 373.049L912.126 382.771L912.143 382.791L912.16 382.811L923.549 373.049ZM926.449 378.312L912.169 382.903L912.193 382.979L912.219 383.056L926.449 378.312ZM923.549 395.393L934.648 405.483L934.795 405.321L934.938 405.154L923.549 395.393ZM918.285 399.152L912.149 385.465L912.059 385.505L911.969 385.547L918.285 399.152ZM904.213 396.789L890.641 403.176L890.791 403.495L890.956 403.807L904.213 396.789ZM903.031 393.244L917.774 390.48L917.745 390.325L917.713 390.171L903.031 393.244ZM901.098 387.121L913.715 379.01L913.556 378.761L913.386 378.519L901.098 387.121ZM882.729 394.426L872.615 383.348L869.047 386.605L868.051 391.332L882.729 394.426ZM865.111 478V493H877.279L879.789 481.094L865.111 478ZM833.422 478L818.748 474.89L814.91 493H833.422V478ZM856.732 383H888.422V353H856.732V383ZM873.727 364.992L870.934 378.634L900.324 384.651L903.117 371.008L873.727 364.992ZM895.574 392.871C900.356 388.636 903.593 386.234 905.506 385.103L890.244 359.276C885.855 361.869 880.928 365.769 875.683 370.414L895.574 392.871ZM905.338 385.201C908.403 383.443 910.616 383 912.162 383V353C904.398 353 897.086 355.35 890.412 359.178L905.338 385.201ZM912.162 383C912.453 383 912.598 383.026 912.626 383.031C912.65 383.036 912.588 383.025 912.474 382.975C912.419 382.951 912.363 382.922 912.307 382.889C912.251 382.856 912.203 382.823 912.164 382.794C912.083 382.732 912.073 382.709 912.126 382.771L934.972 363.327C929.04 356.357 920.939 353 912.162 353V383ZM912.16 382.811C912.147 382.795 912.134 382.778 912.122 382.762C912.111 382.746 912.105 382.735 912.103 382.732C912.102 382.729 912.107 382.739 912.118 382.764C912.129 382.79 912.147 382.835 912.169 382.903L940.73 373.722C939.514 369.94 937.606 366.4 934.938 363.287L912.16 382.811ZM912.219 383.056C912.31 383.33 912.416 383.792 912.416 384.543H942.416C942.416 380.854 941.877 377.163 940.679 373.569L912.219 383.056ZM912.416 384.543C912.416 384.908 912.363 385.181 912.274 385.437L940.624 395.25C941.825 391.782 942.416 388.188 942.416 384.543H912.416ZM912.274 385.437C912.249 385.511 912.231 385.548 912.16 385.631L934.938 405.154C937.445 402.229 939.36 398.901 940.624 395.25L912.274 385.437ZM912.45 385.302C912.459 385.293 912.462 385.292 912.44 385.308C912.416 385.325 912.33 385.384 912.149 385.465L924.421 412.84C928.25 411.123 931.733 408.69 934.648 405.483L912.45 385.302ZM911.969 385.547C912.058 385.505 912.1 385.501 912.058 385.509C912.01 385.519 911.841 385.549 911.518 385.549V415.549C915.914 415.549 920.368 414.723 924.602 412.757L911.969 385.547ZM911.518 385.549C911.358 385.549 911.546 385.533 911.986 385.625C912.431 385.718 913.256 385.948 914.252 386.508L899.544 412.656C903.748 415.02 908.137 415.549 911.518 415.549V385.549ZM914.252 386.508C915.737 387.344 916.836 388.573 917.47 389.771L890.956 403.807C892.879 407.44 895.768 410.531 899.544 412.656L914.252 386.508ZM917.785 390.402C917.73 390.286 917.714 390.234 917.718 390.246C917.722 390.259 917.748 390.338 917.774 390.48L888.288 396.008C888.771 398.582 889.607 400.979 890.641 403.176L917.785 390.402ZM917.713 390.171C917.117 387.321 916.056 382.651 913.715 379.01L888.48 395.232C888.248 394.871 888.085 394.572 887.98 394.367C887.874 394.16 887.805 394.004 887.769 393.918C887.701 393.757 887.703 393.738 887.761 393.921C887.815 394.092 887.897 394.375 888.002 394.791C888.105 395.203 888.222 395.708 888.349 396.317L917.713 390.171ZM913.386 378.519C909.423 372.858 903.438 371.047 898.734 371.047V401.047C897.633 401.047 895.89 400.865 893.924 399.971C891.849 399.028 890.081 397.539 888.809 395.723L913.386 378.519ZM898.734 371.047C893.557 371.047 888.135 372.142 883.175 375.118L898.61 400.843C898.467 400.929 898.338 400.991 898.234 401.033C898.132 401.074 898.068 401.091 898.055 401.094C898.033 401.1 898.235 401.047 898.734 401.047V371.047ZM883.175 375.118C879.754 377.171 876.171 380.101 872.615 383.348L892.843 405.503C895.875 402.734 897.734 401.368 898.61 400.843L883.175 375.118ZM868.051 391.332L850.434 474.906L879.789 481.094L897.406 397.52L868.051 391.332ZM865.111 463H833.422V493H865.111V463ZM848.096 481.11L871.407 371.11L842.058 364.89L818.748 474.89L848.096 481.11Z" fill="white"/>
<path d="M227.852 632.026C295.106 563.856 471.973 464.066 506.934 616.013C520.66 675.665 411.429 718.918 289.044 740.113C220.798 751.932 79.7319 743.659 61.4314 616.013C88.8822 649.754 160.597 700.195 227.852 632.026Z" fill="white" stroke="white"/>
<path d="M770.092 631.708C702.411 563.765 524.422 464.306 489.239 615.748C475.426 675.202 585.35 718.311 708.512 739.436C777.19 751.216 919.152 742.97 937.569 615.748C909.944 649.377 837.773 699.65 770.092 631.708Z" fill="white" stroke="white"/>
</g>
<defs>
<clipPath id="clip0">
<rect width="1000" height="1000" fill="white"/>
</clipPath>
</defs>
</svg>
